<?xml version="1.0" encoding="iso-8859-1"?>
<!-- Generator: Adobe Illustrator 16.0.0, SVG Export Plug-In . SVG Version: 6.00 Build 0)  -->
<!DOCTYPE svg PUBLIC "-//W3C//DTD SVG 1.1//EN" "http://www.w3.org/Graphics/SVG/1.1/DTD/svg11.dtd">
<svg version="1.1" id="Layer_1" xmlns="http://www.w3.org/2000/svg" xmlns:xlink="http://www.w3.org/1999/xlink" x="0px" y="0px"
	 width="300px" height="300px" viewBox="0 0 300 300" style="enable-background:new 0 0 300 300;" xml:space="preserve">
<image style="overflow:visible;" width="219" height="224" xlink:href="../../../image/lgo.JPG"  transform="matrix(0.75 0 0 0.75 565.4883 28.7651)">
</image>
<g>
	<path style="fill-rule:evenodd;clip-rule:evenodd;fill:#F3D859;" d="M170.708,20.024c7.145-0.215,14.271-0.304,20.925,2.949
		c7.299,3.172,15.578,4.443,21.164,10.927c2.095,2.131,3.793,4.716,6.709,5.934c0.617,0.317,1.183,0.703,1.719,1.142
		c2.254,4.221,6.949,5.499,10.246,8.465c1.346,1.153,2.585,2.401,3.424,3.989c1.251,4.57,4.087,7.848,8.225,10.061
		c1.005,0.326,1.963,0.745,2.852,1.318c0.554,0.461,0.986,1.015,1.325,1.645c0.377,2.934,4.201,5.313,1.442,8.765
		c-2.443,1.318-5.089,2.657-3.807,6.127c2.778,7.503-1.389,10.345-7.688,11.925c-0.951,0.237-1.854,0.672-2.813,0.918
		c-3.537,0.412-7.062,0.839-9.517,3.905c-6.562,2.33-12.686-1.824-19.243-1.334c-3.052,0.229-3.143-3.133-2.656-5.87
		c2.432-13.675-0.604-19.088-13.552-23.982c-3.483-1.317-5.984-3.525-7.897-6.643c-1.944-3.171-4.648-3.654-7.708-1.623
		c-3.247,2.158-3.866,4.708-1.803,8.331c8.092,14.21,8.045,14.331-7.09,21.716c-3.261,1.593-4.563,4.374-6.238,7.202
		c-5.517,9.31-10.767,19.02-23.091,21.27c6.337,1.316,12.601,0.725,18.821,0.928c9.528,0.315,13.46,3.114,16.825,12.142
		c1.233,3.308,2.524,6.62,4.26,9.657c3.222,5.629,4.91,11.483,4.395,18.011c-0.162,2.041-0.909,4.806,2.62,5.172
		c1.131,0.325,1.901,1.011,2.199,2.17c-1.39,5.855-7.886,7.34-10.426,12.216c-6.006,6.449-8.601,14.727-11.997,22.549
		c-1.51,3.48-3.392,6.739-5.078,10.108c-3.58,7.145-9.464,9.28-16.896,8.643c-2.323-0.108-4.51-0.69-6.508-1.904
		c-11.325-6.785-24.06-11.379-33.414-21.27c-1.649-1.748-3.32-3.478-5.052-5.146c-2.974-3.214-6.359-6.046-9.009-9.566
		c-2.063-3.08-4.537-5.864-6.538-8.991c-1.73-2.644-3.285-5.377-4.39-8.353c-0.488-1.775-0.502-3.532,0.226-5.253
		c2.021-2.638,4.91-4.8,4.765-8.642c3.608-4.215,9.323-6.132,11.611-12.045c1.158-2.988,4.352-0.451,6.505,0.672
		c1.775,1.028,3.822,1.432,5.631,2.388c8.048,2.999,10.058,2.495,13.552-3.45c1.918-7.47,5.241-14.745,2.976-22.749
		c-0.707-2.825-1.654-5.58-2.359-8.4c-2.215-5.891-6.137-6.541-11.207-3.653c-1.928,1.098-4.163,1.667-5.744,3.357
		c-3.646,2.009-4.328,6.331-7.058,9.059c-1.862,0.825-3.667,0.759-5.41-0.317c-3.079-4.236-3.372-9.48-4.256-14.263
		c-1.354-7.323,4.459-4.287,7.959-3.839c-0.61-12.136-0.611-12.112-12.387-12.364c-3.002-0.065-6.382,0.188-7.712-3.379
		c-1.41-3.778,0.06-6.905,3.045-9.371c2.553-2.109,5.523-3.573,8.539-4.814c6.096-2.508,12.035-4.82,14.773-11.813
		c1.212-3.093,4.809-4.205,7.776-4.99c-1.982-0.072-4.27-0.449-6.464-1.187c-3.489-1.172-7.665-1.482-5.674-7.395
		c1.644-4.889,2.75-9.143,9.359-6.193c4.791,2.138,8.789,1.482,12.968-2.497c6.088-5.794,13.584-7.349,21.511-3.306
		c1.658,0.846,3.289,1.468,5.041,0.802c8.708-3.31,17.89-2.396,28.616-2.961c-4.172-1.833-7.086-1.475-9.781-2.071
		c-2.416-0.532-5.375-0.826-4.031-4.703C162.361,17.372,166.544,19.685,170.708,20.024z"/>
	<path style="fill-rule:evenodd;clip-rule:evenodd;fill:#F5DF6B;" d="M158.29,21.671c5.241,3.098,11.874,0.271,17.03,4.055
		c-1.34,3.604-4.415,3.509-7.47,3.489c-8.776-0.057-17.626-0.652-25.816,3.562c-1.185,0.609-2.254,0.612-3.503-0.148
		c-9.131-5.556-15.642-4.711-22.037,3.056c-3.699,4.493-8.186,2.794-12.336,1.645c-2.292-0.634-4.137-2.92-7.211-1.124
		c-0.793,1.578,7.379,4.608-0.433,5.481c-1.135,0.128-1.558,1.211-1.352,2.298c0.294,1.555,1.64,1.639,2.874,1.904
		c2.447,0.531,4.895,1.074,7.313,1.726c2.052,0.555,4.061,1.271,6.884,2.168c-7.099,1.519-12.651,3.747-14.493,10.995
		c-0.695,2.732-3.073,4.28-6.165,4.842c-5.272,0.961-9.664,4.14-14.336,6.548c-2.977,1.532-4.329,4.311-3.443,7.629
		c0.934,3.494,4.087,1.907,6.348,2.41c3.025,0.678,5.725-1.766,8.842-0.623c4.298,1.575,8.95,12.699,6.58,16.629
		c-1.432,2.373-3.445,2.846-5.416,0.33c-0.915-1.168-1.903-2.85-3.555-1.718c-1.362,0.936-1.275,3.043-0.353,4.134
		c3.336,3.938,2.287,8.549,2.453,12.991c-0.124,0.331-0.25,0.662-0.367,0.998c-2.954,3.599-6.096,6.525-11.415,5.833
		c-10.948-1.424-10.964-1.305-15.912,8.668c-4.993,7.01-6.058,15.751-10.155,23.151c-0.262,0.662-0.585,1.297-0.931,1.916
		c-0.245,0.436-0.485,0.88-0.766,1.296c-1.607,2.381-1.547,7.69-6.329,5.001c-3.831-2.153-6.278-5.942-3.884-10.849
		c1.328-2.724,3.105-5.161,4.924-7.578c1.855-2.463,3.625-5.109,1.609-8.238c-1.913-2.967-4.837-1.89-7.546-1.46
		c-1.949,0.311-3.98,1.048-5.643-0.787c-0.755-3.512,0.133-7.018,0.054-10.531c-0.087-3.907,1.519-6.488,5.367-8.13
		c9.176-3.914,9.63-13.452,12.696-21.156c1.113-2.798-1.487-4.065-4.096-3.689c-3.913,0.562-6.307,2.921-6.895,6.921
		c-0.329,2.235-0.151,4.551-0.978,6.704c-0.561,1.459-1.444,2.805-3.134,2.882c-1.958,0.09-2.321-1.652-2.71-3.065
		c-0.533-1.938-0.854-3.937-2.111-5.595c-2.092-5.164,1.023-8.762,4.032-12.1c4.821-5.348,8.201-11.302,10.124-18.275
		c1.478-5.361,5.317-8.839,10.57-10.863c10.239-3.944,17.64-11.938,25.93-18.624c2.34-1.888-1.05-2.723-1.508-4.156
		c4.543-3.219,9.218-6.121,15.051-6.218c8.834,2.958,16.612-2.61,25.023-3.157c1.691-0.11,3.327-1.44,5.063-1.35
		c9.659,0.516,19.31,1.653,28.79-1.621C155.137,19.33,156.99,20.302,158.29,21.671z"/>
	<path style="fill-rule:evenodd;clip-rule:evenodd;fill:#EDD95B;" d="M79.62,32.225c2.033,0.417,4.874-0.932,5.723,2.15
		c0.871,3.167-1.671,3.44-3.842,4.262c-4.502,1.705-6.802,6.217-10.48,9.111c-6.974,5.488-15.674,7.966-22.1,14.09
		c-1.316,1.255-2.325,2.287-2.627,4.232c-1.188,7.631-5.154,13.746-10.412,19.323c-2.598,2.757-5.485,5.887-4.679,10.406
		c1.428,4.704-1.165,8.669-2.625,12.721c-2.292,6.357-4.594,12.653-4.939,19.474c-0.721,3.158-2.43,6.068-2.508,9.395
		c-0.045,1.968-0.429,4.266,1.995,5.133c1.889,0.676,3.262-0.75,4.651-1.84c2.748-2.152,3.552-8.045,8.276-6.106
		c5.148,2.114,1.225,7.028,1.791,10.626c0.87,5.525,0.826,9.429-6.447,8.831c-1.6-0.132-11.31,13.311-11.463,15.081
		c-0.1,1.155,0.575,1.762,1.32,2.479c6.476,6.256,6.467,6.322,0.898,15.265c-1.011,0.589-2.05,0.651-3.119,0.169
		c-2.398-3.917-2.099-9.058-5.639-12.463c-2.744-20.594-0.534-40.617,4.575-60.803c3.799-15.011,9.522-29.019,17.113-42.114
		C45.424,53.808,60.53,40.571,79.62,32.225z"/>
	<path style="fill-rule:evenodd;clip-rule:evenodd;fill:#A4D2A8;" d="M255.168,237.952c-8.364,8.248-15.481,17.771-25.193,24.647
		c-3.444,2.438-6.527,5.57-11.195,5.507c-4.443-0.014-8.767-0.27-13.276,1.017c-3.692,1.055-8.428,2.211-11.586-2.153
		c-0.027-2.654,1.764-3.833,3.855-4.774c1.99-0.747,3.93-1.638,5.967-2.268c4.051-0.749,8.356,0.209,12.227-1.806
		c-2.156,0.186-4.236,1.226-6.478,0.604c-7.605-3.547-7.698-3.98-1.976-9.231c3.265-1.208,5.563-3.724,8.031-6.012
		c0.881-0.544,1.844-0.875,2.843-1.115c4.848-0.936,8.337-4.2,12.074-7.046c4.23-2.751,8.071-6.128,12.875-7.96
		c4.039-0.479,7.696-3.653,12.08-1.756c1.595,1.874,1.588,4.101,1.417,6.364C256.589,234.045,255.871,235.995,255.168,237.952z"/>
	<path style="fill-rule:evenodd;clip-rule:evenodd;fill:#89C28E;" d="M82.52,265.394c-21.973-7.336-37.083-22.992-49.686-41.469
		c-5.911-8.668-11.036-17.855-13.377-28.283c5.827-1.231,6.525,3.89,8.517,7.125c1.9,3.088,2.72,7.086,7.538,6.871
		c3.744,1.669,4.223,6.67,8.24,8.07c1.629,2.067,3.112,4.262,5.124,6.01c3.276,3.415,7.568,5.646,10.734,9.189
		c5.067,6.635,11.049,12.23,18.443,16.223c1.193,0.765,2.107,1.807,2.958,2.91c1.557,2.575,5.083,3.623,5.535,7.062
		C85.382,261.307,86.015,264.672,82.52,265.394z"/>
	<path style="fill-rule:evenodd;clip-rule:evenodd;fill:#98CB9E;" d="M255.197,233.528c-0.012-2.526-0.023-5.056-0.035-7.582
		c-3.1-3.391-6.459,2.281-9.584-0.277c-1.04-3.045,0.948-4.757,2.835-6.517c0.991-0.765,2.065-1.419,3.214-1.925
		c11.969-5.287,12.451-6.372,8.114-18.461c-0.067-1.091,0.087-2.153,0.406-3.195c3.588-7.421,6.764-15.073,11.937-21.619
		c2.392-3.46,5.312-6.55,7.211-10.364c5.082-0.855,5.249,2.938,5.915,6.258c-0.508,11.075-4.171,21.436-7.251,31.93
		c-6.81,1.886-10.169,8.571-9.131,18.157c-0.849,1.042-1.698,2.085-2.549,3.125C261.242,225.127,261.255,232.539,255.197,233.528z"
		/>
	<path style="fill-rule:evenodd;clip-rule:evenodd;fill:#A2CFA5;" d="M240.122,47.054c15.838,8.843,23.598,24.301,31.565,39.361
		c4.676,8.836,9.148,17.892,11.95,27.6c-4.074,1.196-4.571,8.646-10.758,6.158c-1.45-1.971-1.992-4.442-3.516-6.379
		c-1.491-8.021-6.446-14.778-8.309-22.657c-0.389-0.576-0.693-1.192-0.95-1.833c-0.399-4.443-1.82-8.393-5.491-11.251
		c-0.569-0.861-0.949-1.807-1.288-2.774c-1.835-3.679-5.324-6.106-7.309-9.666l0.077-0.177c0.254-5.196-1.096-9.678-5.216-13.242
		C239.464,50.967,238.345,49.06,240.122,47.054z"/>
	<path style="fill-rule:evenodd;clip-rule:evenodd;fill:#F0DA5C;" d="M158.29,21.671c-4.69,0.014-9.464-0.676-13.571,2.688
		c-1.067,0.875-3.127,1.692-4.183,1.243c-8.538-3.624-16.748-2.278-25.227,0.404c-2.945,0.931-6.096,1.363-9.161,2.273
		c-3.636,1.079-8.774,3.777-11.477-2.273c9.666-6.863,21.168-7.062,32.17-7.966c14.614-1.204,29.462-3.265,43.864,1.984
		C166.611,20.903,162.09,18.561,158.29,21.671z"/>
	<path style="fill-rule:evenodd;clip-rule:evenodd;fill:#7DC18C;" d="M170.428,283.526c-10.601,2.565-21.146-1.154-31.731-0.281
		c-0.875-0.577-1.868-0.639-2.86-0.571c-7.525,0.504-11.143-6.002-16.556-9.275c-0.887-0.535-0.738-1.733-0.031-2.632
		c3.653-2.114,6.93-0.373,9.986,1.286c7.103,3.851,14.382,4.184,21.946,1.823c1.927-0.6,4.222-1.897,5.845-1.129
		c10.908,5.156,21.4-0.909,32.088-0.846c2.717,0.643,5.899,1.489,5.361,4.857c-0.4,2.498-3.702,1.605-5.669,2.343
		C182.852,281.334,176.323,281.107,170.428,283.526z"/>
	<path style="fill-rule:evenodd;clip-rule:evenodd;fill:#B2D097;" d="M240.122,47.054c-0.13,3.135,2.382,5.098,4.219,6.48
		c4.863,3.661,5.604,7.275,1.754,11.903c-0.974,0.004-1.947,0.006-2.925,0.011c-2.316-4.564-6.35-7.806-9.215-11.947
		c-0.999-1.033-1.996-2.065-2.993-3.097c-2.591-4.156-7.026-6.153-10.66-9.085c-0.445-0.036-0.891-0.083-1.336-0.137
		c-1.509-2.559-3.458-4.651-6.231-5.866c-7.032-4.112-14.067-8.227-21.102-12.341C210.289,25.98,225.963,34.991,240.122,47.054z"/>
	<path style="fill-rule:evenodd;clip-rule:evenodd;fill:#89C294;" d="M273.635,120.085c2.808-0.311,4.837-2.021,5.408-4.521
		c0.817-3.565,2.952-1.446,4.595-1.549c4.236,18.506,6.008,37.081,1.574,55.831c-1.396-2.519-2.717-5.109-5.828-5.946
		c-1.598-3.675-0.203-7.293,0.221-10.924c0.542-4.635,1.758-9.293-0.662-13.773c-1.547-2.773-0.8-5.773-0.506-8.602
		c0.453-4.369-0.445-7.557-5.177-8.66C272.927,121.23,273.053,120.611,273.635,120.085z"/>
	<path style="fill-rule:evenodd;clip-rule:evenodd;fill:#87C696;" d="M170.428,283.526c4.645-4.91,11.395-3.97,17.063-6.039
		c1.709-0.622,3.837-0.095,6-0.095c-0.522-3.448-3.292-3.326-4.957-4.523c-2.42-4.639-0.741-6.389,5.96-6.201
		c4.473,0.463,8.597,2.749,13.493-0.461c2.772-1.818,7.551-0.934,10.794,1.899C203.12,274.684,188.589,284.794,170.428,283.526z"/>
	<path style="fill-rule:evenodd;clip-rule:evenodd;fill:#AFDDB9;" d="M119,271.33c6.734,3.692,11.227,11.093,19.697,11.915
		c-8.826,0.73-17.485-0.186-25.99-2.625c1.021-1.414,2.165-2.75-0.537-3.743c-2.47-0.907-5.023-1.671-7.243-3.175
		c-4.764-2.56-1.136-5.903-0.834-8.945c2.294-1.332,4.376-0.404,6.46,0.571C113.352,267.344,118.45,266.149,119,271.33z"/>
	<path style="fill-rule:evenodd;clip-rule:evenodd;fill:#9DCDA3;" d="M103.833,265.334c1.381,2.304-1.868,5.559,1.532,7.446
		c-1.556,5.472-5.224-0.351-7.476,1.396c-5.808-1.728-10.659-5.131-15.368-8.783c1.064-2.034,2.129-4.067,3.193-6.101
		C93.096,257.279,98.035,262.596,103.833,265.334z"/>
	<path style="fill-rule:evenodd;clip-rule:evenodd;fill:#83BE75;" d="M35.468,210.85c-3.613,0.815-6.231,1.099-7.653-3.894
		c-1.255-4.408-3.088-9.407-8.358-11.314c-1.531-3.286-3.147-6.547-3.374-10.264c1.562-1.598,2.11,0.349,3.065,0.877
		c0.977,0.116,1.954,0.234,2.93,0.353c0.319,0.162,0.64,0.325,0.964,0.481c5.07,5.95,8.112,13.18,12.358,19.658
		C36.168,207.919,36.825,209.462,35.468,210.85z"/>
	<path style="fill-rule:evenodd;clip-rule:evenodd;fill:#B0D6B5;" d="M268.828,219.933c-1.363-1.105-4.08-1.21-2.971-4.126
		c1.489-3.905,2.963-7.818,4.397-11.743c1.553-4.256,4.252-4.501,7.704-2.29C275.922,208.333,272.708,214.3,268.828,219.933z"/>
	<path style="fill-rule:evenodd;clip-rule:evenodd;fill:#86B98D;" d="M97.889,274.177c1.908-3.586,5.514,1.908,7.475-1.396
		c4.531,1.288,9.121,2.445,12.922,5.609c-0.93,3.318-3.831,1.33-5.578,2.23C107.369,279.391,102.578,276.902,97.889,274.177z"/>
	<path style="fill-rule:evenodd;clip-rule:evenodd;fill:#92BB98;" d="M255.197,233.528c4.11-3.046,4.201-10.349,11.08-10.471
		c-2.714,5.702-4.97,11.747-11.109,14.895C254.165,236.47,254.277,234.998,255.197,233.528z"/>
	<path style="fill-rule:evenodd;clip-rule:evenodd;fill:#DFD57A;" d="M19.147,186.255c-1.021-0.295-2.042-0.589-3.065-0.881
		c-1.549-3.44-2.475-7.038-2.688-10.812C18.417,176.932,19.95,181.018,19.147,186.255z"/>
	<path style="fill-rule:evenodd;clip-rule:evenodd;fill:#F2D34B;" d="M233.975,92.772c1.352-0.659,2.654-1.746,4.061-1.903
		c6.126-0.691,7.365-3.813,4.983-9.083c-2.987-6.617,0.511-7.784,6.083-7.167c0.313,0.121,0.63,0.241,0.947,0.353
		c4.585,2.245,3.979,8.358,8.155,10.91c1.376,0.959,1.632,2.856,3.127,3.719l-0.134,0.171c2.406,3.99,1.661,8.308,1.332,12.585
		c-0.639,1.617-1.771,2.651-3.518,2.935c-3.519-3.36-0.705-12.251-8.043-11.497c-7.801,0.801-16.198,2.323-20.874,10.33
		c-0.38,0.65-0.898,1.214-1.385,1.794c-7.499,7.308-7.634,7.495-16.066,1.539c-4.215-2.978-9.056-4.219-13.714-5.521
		c-4.451-1.243-7.816,1.833-9.726,6.03c-1.324,1.857-2.946,3.453-4.625,4.972c-2.308,2.087-3.105,4.109-1.539,7.266
		c2.213,4.457,2.016,9.475,0.542,14.038c-1.231,3.819-0.414,6.862,1.328,10.032c-0.519,6.575-4.67,12.705-2.392,19.625
		c-3.179,2.353-5.75,1.739-4.772-2.367c3.284-13.776-6.877-23.571-10.112-35.377c-1.154-4.207-6.204-6.271-11.236-6.173
		c-6.039,0.116-12.084,0.077-18.125-0.006c-2.802-0.038-6.538-0.345-6.681-3.476c-0.206-4.484,3.76-1.482,5.769-1.923
		c10.371-2.276,14.703-10.938,19.188-18.835c2.705-4.766,4.672-8.394,10.693-10.043c10.039-2.75,11.323-8.103,3.677-16.827
		c-4.989-5.69-2.954-8.939,1.671-12.09c4-2.725,8.386-4.063,10.616,2.447c1.278,3.729,4.209,5.324,7.832,6.284
		c12.79,3.388,17.731,12.972,13.452,26.01c-0.633,1.932-0.453,4.587,1.435,3.881c6.825-2.559,12.52,3.074,18.975,1.904
		C227.082,94.112,231.013,94.412,233.975,92.772z"/>
	<path style="fill-rule:evenodd;clip-rule:evenodd;fill:#F3DC60;" d="M97.791,139.685c-1.859-0.23-4.807-4.327-5.23-0.735
		c-0.884,7.491-6.721,8.27-11.432,10.881c-1.489,3.497-4.516,4.689-7.931,5.312c-2.884,0.178-5.776,0.398-8.486-0.957
		c-6.004-7.606-5.576-8.317,2.701-12.745c6.15-3.291,11.504-7.979,17.637-11.422c2.575-1.445,2.371-4.159,2.085-6.739
		c-0.359-3.245-0.824-6.535,1.562-9.331l-0.002,0.001c2.002-0.001,4.004-0.001,6.006-0.002c2.777,2.575,1.913,6,2.108,9.163
		c0.244,3.944-0.633,8.04,1.677,11.691C99.086,136.548,99.147,138.219,97.791,139.685z"/>
	<path style="fill-rule:evenodd;clip-rule:evenodd;fill:#E8CA4F;" d="M182.519,163.899c-3.762-4.296-3.799-8.737-0.863-13.545
		c1.123-1.844,1.604-4.078,2.378-6.136c2.43-6.79,8.96-3.966,13.515-5.785c2.054-0.449,4.083-0.485,6.063,0.345
		c1.109,0.605,1.921,1.482,2.382,2.666c-1.052,6.654-5.393,12.334-4.841,19.682c0.271,3.625-5.045,2.849-7.841,4.061
		c-3.048,0.414-6.088,1.589-9.174,0.178C183.598,164.876,183.059,164.388,182.519,163.899z"/>
	<path style="fill-rule:evenodd;clip-rule:evenodd;fill:#8A7A66;" d="M140.136,217.013c8.104,1.237,12.835-2.635,16.64-9.568
		c5.708-10.403,7.545-22.87,16.679-31.43c0.536,0.499,0.898,1.102,1.096,1.803c-3.433,10.25-7.062,20.436-10.626,30.642
		c-0.684,1.953-1.613,3.606-0.362,5.57c0.514,1.994-0.164,3.561-1.703,4.827c-4.569,0.765-9.04,1.866-13.238,3.92
		C146.144,220.345,142.606,219.464,140.136,217.013z"/>
	<path style="fill-rule:evenodd;clip-rule:evenodd;fill:#908976;" d="M100.78,194.158c9.762,9.202,22.236,14.12,33.374,21.148
		c-2.614,2.349-2.714,2.597-5.461,1.497c-3.617-1.45-7.16-1.799-10.868-0.646c-0.712,0.095-1.419,0.063-2.125-0.063
		c-2.698-0.979-5.354-2.027-6.819-4.767c-1.655-4.646-5.759-5.952-9.889-7.224c-1.855-0.544-3.115-1.627-3.323-3.663
		c0.456-2.616,1.776-4.653,4.065-6.041C100.08,194.317,100.43,194.239,100.78,194.158z"/>
	<path style="fill-rule:evenodd;clip-rule:evenodd;fill:#6B6457;" d="M117.194,215.87c3.104-3.756,6.781-2.654,10.612-1.429
		c2.018,0.646,3.817,3.799,6.347,0.865c1.996,0.567,3.99,1.137,5.984,1.706c3.085,1.458,6.169,2.916,9.255,4.374
		c0.365,0.861,0.188,1.594-0.527,2.201c-2.239,1.429-4.771,1.249-7.258,1.338C132.521,224.469,123.521,223.767,117.194,215.87z"/>
	<path style="fill-rule:evenodd;clip-rule:evenodd;fill:#89867C;" d="M76.888,157.903c-0.061,1.921-0.12,3.84-0.181,5.762
		c-0.14,4.914-2.988,3.828-5.886,2.678c-3.158-1.771-6.675-1.669-10.127-2.073c-6.545-0.769-7.209-2.416-3.81-8.678
		c1.583-0.997,3.338-1.233,5.162-1.193c3.23,0.575,6.499,0.303,9.745,0.48C73.951,154.997,76.535,154.639,76.888,157.903z"/>
	<path style="fill-rule:evenodd;clip-rule:evenodd;fill:#82764C;" d="M173.471,177.554c-0.006-0.514-0.011-1.026-0.017-1.539
		c2.353-4.762,7.388-6.831,10.684-10.649c2.875-1.624,6.053-1.805,9.237-1.943c4.016-0.208,8.126-0.599,9.186,4.822
		c-0.636,1.044-1.611,1.643-2.711,2.078c-1.393,0.509-2.904,1.049-4.317,0.666c-6.634-1.793-11.995,0.265-16.76,4.91
		C177.433,177.207,175.687,178.46,173.471,177.554z"/>
	<path style="fill-rule:evenodd;clip-rule:evenodd;fill:#E0D478;" d="M97.61,135.305c-3.399-0.792-2.797-3.529-2.825-5.909
		c-0.06-5.149-0.06-10.298-0.084-15.448c-0.342-4.623,1.645-7.7,6.078-9.15c1.121,1.798,0.411,3.716,0.39,5.6
		c-0.03,0.797-0.134,1.578-0.266,2.362c-2.15,7.1,0.331,14.697-2.35,21.735C98.242,134.767,97.925,135.035,97.61,135.305z"/>
	<path style="fill-rule:evenodd;clip-rule:evenodd;fill:#B1A88D;" d="M80.88,171.383c2.518,2.723,5.414,5.182,6.325,9.032
		c-0.084,0.368-0.169,0.734-0.249,1.104c-2.852,4.271-5.82,1.979-8.794,0.169c-3.289-2.916-6.781-5.765-4.156-10.936
		C76.442,169.371,78.706,169.895,80.88,171.383z"/>
	<path style="fill-rule:evenodd;clip-rule:evenodd;fill:#817553;" d="M122.177,113.601c3.102,8.907-0.344,16.97-3.233,25.104
		c-2.589,2.52-5.337,4.514-9.21,2.792c-0.5-0.883-1.035-2.292-0.241-2.713c9.624-5.083,8.326-15.304,11.231-23.534
		C121.054,114.563,121.534,114.009,122.177,113.601z"/>
	<path style="fill-rule:evenodd;clip-rule:evenodd;fill:#DDCD73;" d="M99.384,109.45c0.466-1.551,0.931-3.102,1.395-4.652
		c7.458-8.075,14.159-8.027,19.582,0.137c-0.765,0.768-1.691,0.928-2.715,0.733c-1.531-0.479-2.817-1.605-4.501-1.691
		C107.545,103.273,104.756,109.619,99.384,109.45z"/>
	<path style="fill-rule:evenodd;clip-rule:evenodd;fill:#88784D;" d="M76.888,157.903c-4.934-3.272-10.497-0.715-15.679-1.692
		c-0.267-0.867-0.019-1.543,0.744-2.031c3.838-0.863,7.873,0.982,11.644-0.836c2.51-1.17,5.021-2.341,7.532-3.511
		C83.84,154.689,80.309,156.266,76.888,157.903z"/>
	<path style="fill-rule:evenodd;clip-rule:evenodd;fill:#DDD977;" d="M233.955,53.501c4.906,2.567,9.274,5.551,9.215,11.947
		C238.203,62.929,233.738,60.021,233.955,53.501z"/>
	<path style="fill-rule:evenodd;clip-rule:evenodd;fill:#E9D973;" d="M109.935,140.741c3.003-0.68,6.007-1.359,9.009-2.037
		c-3.029,6.701-9.786,7.865-15.167,2.614c0.255-0.279,0.511-0.562,0.763-0.845C106.391,139.486,108.187,139.632,109.935,140.741z"/>
	<path style="fill-rule:evenodd;clip-rule:evenodd;fill:#DEE083;" d="M246.018,65.614c4.061,1.987,7.135,4.942,8.951,9.13
		c-1.988,1.627-3.94,1.41-5.863-0.121l-0.004-0.003C248.349,71.522,244.908,69.347,246.018,65.614z"/>
	<path style="fill-rule:evenodd;clip-rule:evenodd;fill:#867E59;" d="M80.88,171.383c-2.4,0.01-4.8,0.02-7.2,0.031
		c-2.908-1.249-3.393-3.259-1.861-5.905c2.23,0.981,4.007,0.761,4.888-1.842C78.098,166.238,79.488,168.81,80.88,171.383z"/>
	<path style="fill-rule:evenodd;clip-rule:evenodd;fill:#CBCE63;" d="M220.302,41.319c4.813,1.552,10,2.663,10.66,9.085
		C226.733,48.167,221.423,47.201,220.302,41.319z"/>
	<path style="fill-rule:evenodd;clip-rule:evenodd;fill:#908976;" d="M96.367,189.486c2.094,0.97,3.318,2.761,4.414,4.672
		c-0.001,0-0.363,0.294-0.363,0.294c-3.434,1.115-6.876,1.313-10.336,0.072c-0.76-0.973-0.891-2.061-0.608-3.233
		c0.479-1.135,1.283-1.956,2.382-2.496C93.479,188.239,94.952,188.673,96.367,189.486z"/>
	<path style="fill-rule:evenodd;clip-rule:evenodd;fill:#827B53;" d="M96.367,189.486c-1.547,0.071-3.095,0.142-4.642,0.213
		c-3.851-1.787-6.357-4.258-4.543-8.928l0.022-0.354C90.82,182.872,93.749,186.022,96.367,189.486z"/>
	<path style="fill-rule:evenodd;clip-rule:evenodd;fill:#E0D478;" d="M97.791,139.685c-0.059-1.462-0.118-2.924-0.179-4.382
		c-0.001,0.002,0.302-0.258,0.302-0.258c1.949-0.773,3.521,0.104,5.062,1.143c1.303,1.405,2.372,2.863,0.994,4.822
		c0,0-0.19,0.307-0.191,0.309C101.726,140.979,99.342,141.854,97.791,139.685z"/>
	<path style="fill-rule:evenodd;clip-rule:evenodd;fill:#CCD175;" d="M212.734,35.316c4.651-0.778,6.655,1.256,6.231,5.867
		C215.53,40.674,213.721,38.43,212.734,35.316z"/>
	<path style="fill-rule:evenodd;clip-rule:evenodd;fill:#817459;" d="M117.459,104.654c0.968,0.093,1.936,0.187,2.902,0.281
		c0.604,2.89,1.209,5.778,1.814,8.667c-0.089,0.655-0.18,1.311-0.271,1.966C115.677,113.863,115.961,109.505,117.459,104.654z"/>
	<path style="fill-rule:evenodd;clip-rule:evenodd;fill:#EDCF54;" d="M233.975,92.772c-2.524,2.512-5.613,3.897-9.075,4.537
		C225.642,91.229,230.387,93.157,233.975,92.772z"/>
	<path style="fill-rule:evenodd;clip-rule:evenodd;fill:#F3DC60;" d="M89.658,191.425c0.204,0.978,0.41,1.951,0.615,2.929
		c2.277,1.718,6.617,1.233,6.214,5.816c0.452,1.499,1.506,2.384,2.945,2.877c4.472,1.344,7.336,4.752,10.311,8.023
		c1.486,2.234,5.058,1.726,6.051,4.606c-2.879,4.993-8.433,6.313-12.703,5.371c-11.035-2.432-17.578,2.511-22.88,10.981
		c-4.196,0.963-5.028-2.438-6.003-5.045c-2.165-5.793-5.344-9.542-12.212-7.776c-0.713,0.183-1.614,0.291-2.204-0.085
		c-5.172-3.299-8.203-1.386-10.023,3.909c-0.227,0.656-1.075,0.985-1.804,1.208c-2.636-1.088-4.487-2.824-4.8-5.825
		c0.841-2.599,1.211-5.302,1.826-7.948c1.5-6.457,0.604-8.021-6.22-7.838c-4.084,0.106-7.185-1.154-8.386-4.717
		c-1.611-4.778-5.388-7.646-8.284-11.299l-0.022-0.006c-0.155-2.345,0.754-4.384,1.698-6.459c1.472-3.229,2.98-6.394-3.104-6.196
		c-2.349,0.077-5.097-3.342-3.924-4.268c5.827-4.592,5.681-13.183,12.41-17.166c2.845-1.683,4.814-1.86,8.174,0.548
		c-1.223-5.055-2.718-9.214-0.22-13.365c0.63-1.048,0.455-3.174-1.163-3.958c-2.258-1.098-3.036,0.843-3.931,2.338
		c-0.128,0.215-0.25,0.436-0.361,0.66c-2.04,4.106-5.624,8.029-9.784,6.234c-5.09-2.193-2.805-7.69-1.684-11.956
		c0.363-1.385,1.258-2.632,1.909-3.941c2.016,1.356,1.306,4.3,3.025,5.651c3.154,0.364,4.352-3.963,7.591-2.612
		c2.169-0.518,4.375-0.92,6.501-1.582c2.985-0.928,5.595-1.52,7.877,1.682c2.477,3.472,1.779,6.477-0.368,9.582
		c-2.109,3.054-4.208,6.118-6.38,9.126c-0.936,1.295-1.676,2.538-0.519,4.028c1.355,1.745,2.512,4.559,4.202,4.941
		c3.612,0.819,1.442-3.427,3.044-4.721c0.765-0.619,1.521-1.25,2.282-1.874c2.195,1.648,5.198,1.298,7.377,2.984
		c-2.518,5.725,0.467,6.729,5.338,6.393c3.542-0.244,7.557-1.73,9.749,2.829c0.619,1.971,1.239,3.938,1.859,5.907
		c1.419,3.318,1.806,7.271,5.616,9.115C82.115,184.764,87.403,186.651,89.658,191.425z"/>
	<path style="fill-rule:evenodd;clip-rule:evenodd;fill:#F3D859;" d="M56.733,156.285c-2.631-0.567-7.006,3.173-7.377-2.984
		l0.002-0.002c4.925-7.46,6.632-16.325,10.575-24.214c3.298-11.187,5.668-13.182,16.562-10.151
		c6.231,1.734,7.743-4.464,12.203-4.984c2.91,11.725-0.636,19.708-12.586,24c-4.384,1.572-7.054,6.093-12.703,7.046
		c-3.788,0.641,1.818,5.165,1.068,8.232c-0.686,0.823-1.636,0.772-2.571,0.808c-0.696,0.028-1.389-0.144-2.082,0.012
		c0.606,0.269,1.394,0.152,1.8,0.846c-0.157,0.436-0.295,0.873-0.414,1.32C59.717,156.236,58.225,156.26,56.733,156.285z"/>
	<path style="fill-rule:evenodd;clip-rule:evenodd;fill:#F5E376;" d="M32.716,132.117c-0.428,0.242-0.844,0.506-1.286,0.721
		c-2.702,1.315-3.231,6.617-7.319,4.875c-3.813-1.625-1.313-5.718-2.011-8.634c-0.923-12.175,5.417-22.365,9.102-33.28
		c5.139,0.701,1.656,5.663,3.899,7.923c3.397-1.672,2.312-4.881,2.023-7.259c-0.701-5.78,2.966-8.037,7.115-10.154
		c3.114-1.587,6.147-0.041,8.496,1.315c2.536,1.463,0.158,4.182-0.498,6.104c-1.85,5.428-4.108,10.717-6.25,16.043
		c-0.275,0.684-0.71,1.704-1.238,1.823C33.383,114.157,34.278,123.853,32.716,132.117z"/>
	<path style="fill-rule:evenodd;clip-rule:evenodd;fill:#F3DC60;" d="M59.933,129.084c-1.389,9.005-3.779,17.572-10.575,24.214
		C52.688,145.142,53.521,135.896,59.933,129.084z"/>
	<path style="fill-rule:evenodd;clip-rule:evenodd;fill:#F1D757;" d="M218.615,244.03c-0.898,0.048-1.797,0.093-2.693,0.136
		c-3.779,1.61-6.729,5.624-11.617,4.038c-2.78-1.992-6.043-2.097-9.28-2.507c-4.002-0.506-5.078-2.821-3.241-6.407
		c2.372-4.637,6.112-7.799,10.624-10.327c5.226-2.926,10.786-5.389,14.813-10.147c3.098-3.655,3.05-6.01-2.114-7.257
		c-2.186-0.526-4.319-1.285-6.56-1.636c-2.558-0.399-3.162-2.124-2.873-4.409c2.834-5.762,7.498-10.114,11.523-14.957
		c0.622-0.813,1.323-1.551,2.057-2.255c1.663-1.572,3.272-3.182,3.942-5.476c1.226-3.97,4.069-7.021,5.971-10.61
		c0.306-0.64,0.646-1.253,0.987-1.869c1.952-3.003,2.124-7.157,5.813-9.045c2.254-0.825,4.473-0.856,6.642,0.276
		c3.821,6.211,3.821,6.211,9.827,1.048c1.572-1.352,3.335-2.593,5.424-1.602c1.831,0.869,2.103,2.959,1.758,4.643
		c-1.09,5.317,0.229,10.52,0.308,15.771c0.151,9.811-7.202,15.611-12.705,22.322c-1.425,1.736-3.444,2.956-5.33,4.201
		c-4.382,2.889-6.974,5.915-1.986,10.616c1.512,1.425,1.807,3.553,1.483,5.663c-1.456,5.501-6.62,7.59-10.226,11.108
		C226.363,237.345,222.803,241.142,218.615,244.03z"/>
	<path style="fill-rule:evenodd;clip-rule:evenodd;fill:#6DB674;" d="M119,271.33c-2.097-3.435-6.623-1.878-9.14-4.447
		c-0.433-1.574,0.561-2.238,1.764-2.774c3.872-0.841,7.439,0.776,11.142,1.355c22.079,3.586,43.891,2.743,65.365-3.857
		c1.921-0.592,3.83-1.202,5.872-1.208c2.07,0.392,4.734-0.136,4.951,3.156c-2.122,0.128-3.487,1.34-4.457,3.115
		c-2.898,1.19-7.182,1.049-5.962,6.199c-5.299,1.994-11.925,0.07-16.12,5.507c-0.358,0.467-2.128,0.439-2.794-0.016
		c-7.878-5.381-15.853-3.214-24.197-1.181c-5.577,1.36-11.407,0.284-16.521-3.073C125.94,272.159,122.677,270.904,119,271.33z"/>
	<path style="fill-rule:evenodd;clip-rule:evenodd;fill:#81BD84;" d="M198.953,263.555c-1.084-1.673-2.835-1.2-4.386-1.365
		c-2.276-2.648-3.557-5.521-2.021-9.028c0.521-0.662,1.16-1.187,1.901-1.586c4.52-1.823,8.922-4.908,13.97-1.372
		c-4.073,3.206-3.988,5.725,1.228,7.386c-1.273,2.453-4.511,1.316-6.039,3.304C202.055,261.779,200.504,262.666,198.953,263.555z"/>
	<path style="fill-rule:evenodd;clip-rule:evenodd;fill:#98BE71;" d="M230.828,234.797c1.892-4.482,7.178-5.875,9.269-10.179
		c2.608-3.216,2.449-9.716,9.332-7.857c0.599,1.131,0.571,2.208-0.261,3.224c-1.011,1.974-3.259,3.257-3.235,5.809
		c-0.374,1.594-2.004,2.037-2.893,3.16c-4.021,2.569-8.043,5.139-12.064,7.708c-0.422-0.384-0.583-0.788-0.486-1.212
		C230.588,235.014,230.7,234.797,230.828,234.797z"/>
	<path style="fill-rule:evenodd;clip-rule:evenodd;fill:#C9D071;" d="M208.417,250.203c-5.028-1.054-9.194,2.158-13.878,2.801
		c-0.506-6.72,1.624-8.104,9.171-5.961c4.612,1.348,7.58-4.295,12.21-2.877C214.675,247.74,212.44,250.083,208.417,250.203z"/>
	<path style="fill-rule:evenodd;clip-rule:evenodd;fill:#BEE3C8;" d="M203.605,260.893c1.069-2.668,1.332-2.813,6.041-3.302
		c4.093,1.123,7.107-3.561,11.377-2.257C216.731,261.354,214.525,262.042,203.605,260.893z"/>
	<path style="fill-rule:evenodd;clip-rule:evenodd;fill:#A5C16B;" d="M230.828,234.797c0.047,0.619,0.097,1.241,0.147,1.862
		c-3.515,3.47-7.143,6.749-12.358,7.371C221.638,239.567,224.464,234.841,230.828,234.797z"/>
	<path style="fill-rule:evenodd;clip-rule:evenodd;fill:#BBE2BC;" d="M243.04,228.953c0.091-1.853,1.061-2.902,2.893-3.16
		c3.068,0.461,6.264-6.571,9.229,0.153C251.003,226.469,247.381,229.16,243.04,228.953z"/>
	<path style="fill-rule:evenodd;clip-rule:evenodd;fill:#EFE383;" d="M122.107,266.759c-3.525-0.528-7.051-1.057-10.577-1.586
		c-11.939-0.751-22.033-6.246-31.866-12.408c-0.562-0.815-1.123-1.633-1.684-2.449c1.049-3.304-1.958-5.741-1.896-8.835
		c0.969-2.116,1.881-4.266,2.933-6.358c0.516-0.508,1.129-0.8,1.845-0.895c4.56,1.555,4.434,7.272,8.368,9.391
		c14.822,7.508,30.107,13.237,47.015,13.692c3.446,0.095,8.734-1.206,8.214,5.462C137.056,264.364,129.646,265.917,122.107,266.759z
		"/>
	<path style="fill-rule:evenodd;clip-rule:evenodd;fill:#F1E170;" d="M47.964,224.24c0.612-2.148,0.967-4.418,1.908-6.41
		c0.939-1.99,3.089-4.938,4.956-3.154c4.213,4.021,8.782,2.175,13.249,2.142c3.201-0.023,3.986,2.286,5.456,4.319
		c2.459,3.408,1.907,8.467,6.087,10.858c0.796,0.964,0.917,1.938,0.037,2.922l-0.088,0.211c-3.013,1.553-6.489-1.99-9.383,0.873
		c-3.631,1.259-6.721-0.114-8.416-3.048c-2.566-4.447-2.163,1.527-3.496,0.761C55.184,230.177,50.225,228.677,47.964,224.24z"/>
	<path style="fill-rule:evenodd;clip-rule:evenodd;fill:#F1E170;" d="M22.1,186.613c4.273,2.063,7.983,4.416,9.357,9.596
		c0.947,3.57,3.32,5.147,7.849,4.343c7.354-1.31,9.701,3.121,7.688,10.193c-0.867,3.042-0.222,6.183-3.828,7.67
		c-5.275,0.233-5.456-4.713-7.694-7.565C31.843,202.312,25.205,195.437,22.1,186.613z"/>
	<path style="fill-rule:evenodd;clip-rule:evenodd;fill:#F1DB56;" d="M58.274,233.714c-0.061-4.447,2.259-4.747,4.7-2.046
		c2.208,2.445,4.364,3.799,7.598,3.334c3.058,0.97,6.272,1.781,6.099,6.025c0.504,3.086,6.808,5.352,1.311,9.286
		C69.142,247.475,63.432,240.921,58.274,233.714z"/>
	<path style="fill-rule:evenodd;clip-rule:evenodd;fill:#8AB06B;" d="M79.664,252.765c10.996,3.175,20.439,10.339,31.866,12.41
		c-0.557,0.567-1.112,1.137-1.67,1.706c-1.84-1.17-3.786-1.937-6.027-1.547c-6.709-0.008-11.692-5.189-18.118-6.041
		C84.79,256.104,80.164,256.348,79.664,252.765z"/>
	<path style="fill-rule:evenodd;clip-rule:evenodd;fill:#F4DC5C;" d="M249.013,216.682c-4.534,0.887-4.906,6.457-8.916,7.935
		c-0.052-2.016,0.073-4.273-1.762-5.519c-6.774-4.596-4.755-8.199,1.092-11.514c7.692-4.362,11.991-11.83,17.087-18.586
		c1.123-1.488,1.698-3.007,1.669-4.836c-0.12-7.343-2.755-14.62,0.473-22.058c-3.989-0.104-5.645,1.298-6.56,4.045
		c-0.87,2.624-2.254,5.848-5.584,4.362c-2.876-1.285-5.272-4.018-3.443-7.948c0.614-0.946,1.563-1.297,2.597-1.466
		c0.93-0.341,2.932,0.063,1.86-1.88c-1.068-1.932-2.976-3.148-4.983-4.146c-2.282-1.136-4.579-2.367-2.347-5.486
		c2.475-1.683,5.611-2.262,7.933-4.87c-0.701-2.678-5.576-2.863-4.511-6.763c0.915-3.344,3.699-4.557,6.387-5.915
		c6.059-3.06,9.902-7.365,9.439-14.761c-0.293-4.68,2.857-9.053,1.764-13.92c-0.004-4.528-0.008-9.056-0.01-13.584
		c4.159,7.599,8.91,14.972,9.17,24.056c0.312,0.96,0.308-0.357,0.385,0.632c0.847,10.625,4.283,20.86,4.674,31.559
		c0.477,13.013-2.026,25.224-8.804,36.535c-2.412,4.023-4.29,8.434-5.355,13.093c-0.006,1.023-0.008,2.044-0.012,3.066
		c-1.626,4.64-3.943,8.982-5.896,13.481C254.238,214.771,252.08,216.536,249.013,216.682z"/>
	<path style="fill-rule:evenodd;clip-rule:evenodd;fill:#DDDF80;" d="M261.267,195.647c-1.543-5.133,1.265-9.447,3.476-13.337
		c7.505-13.198,10.445-27.542,8.126-42.05c-1.417-8.851-2.796-17.501-2.501-26.431c4.114,0.504,2.607,3.943,3.266,6.255
		c-0.081,0.505-0.056,1.006,0.078,1.501c3.5,8.251,3.594,17.139,4.855,25.813c0.177,9.383,0.719,18.839-5.131,27.075
		C269.378,181.532,265.321,188.59,261.267,195.647z"/>
	<path style="fill-rule:evenodd;clip-rule:evenodd;fill:#81C588;" d="M249.013,216.682c6.419-4.396,6.144-13.354,12.24-17.968
		c6.258,11.769,4.813,14.309-12.085,21.271C249.117,218.885,249.065,217.783,249.013,216.682z"/>
	<path style="fill-rule:evenodd;clip-rule:evenodd;fill:#AFD5A1;" d="M273.436,174.475c4.138-8.808,2.469-18.281,3.146-27.487
		c1.281-2.817,0.18-6.412,2.857-8.776c2.752,0.225,2.943,2.162,2.971,4.313c0.091,7.282-0.798,14.421-3.026,21.375
		C280.588,169.217,275.567,171.032,273.436,174.475z"/>
	<path style="fill-rule:evenodd;clip-rule:evenodd;fill:#F3D859;" d="M249.105,74.623c1.956,0.04,3.911,0.08,5.865,0.119
		c0.104,0.928,0.209,1.855,0.313,2.782c0.97,3.068,4.753,5.245,2.906,9.202c-2.918,0.244-4.622-0.852-4.676-4.017
		C253.458,79.274,249.489,77.915,249.105,74.623z"/>
	<path style="fill-rule:evenodd;clip-rule:evenodd;fill:#CEDA7F;" d="M258.19,86.726c-0.646-3.17-4.345-5.374-2.906-9.201
		c6.112,1.975,6.281,6.927,6.045,12.077C259.271,89.75,258.299,88.708,258.19,86.726z"/>
	<path style="fill-rule:evenodd;clip-rule:evenodd;fill:#73BF74;" d="M279.439,138.211c-0.251,3.156-0.844,6.201-2.859,8.78
		c-0.27-8.547-3.915-16.71-2.873-25.405c2.767,1.499,5.375,0.52,8.347-0.78C278.365,126.457,281.1,132.624,279.439,138.211z"/>
	<path style="fill-rule:evenodd;clip-rule:evenodd;fill:#EDCF54;" d="M188.484,107.813c1.051-6.651,6.515-9.062,12.835-7.111
		c6.298,1.942,11.768,4.693,17.026,8.653c4.936,3.714,5.909-3.868,9.578-4.479c1.892-1.502,3.745-0.438,5.648,0.021
		c8.362,2.022,16.475,5.072,25.081,6.089c0.871,4.54,0.236,8.97-0.955,13.362c-10.852,10.46-35.063,12.158-45.554,5.158
		c-2.982-4.342,0.898-10.499-3.803-14.386c-3.005-2.563-2.65-7.947-7.534-8.926c-4.513-2.589-7.485,2.579-11.531,2.288
		C189.013,108.258,188.749,108.037,188.484,107.813z"/>
	<path style="fill-rule:evenodd;clip-rule:evenodd;fill:#F1D658;" d="M212.797,129.087c5.336,0.996,11.88,0.289,15.869,1.63
		c11.485,3.864,18.684-4.642,27.978-6.185c0.219-5.553,4.008-10.963,0.645-16.66c-0.149-1.135,0.054-2.162,0.904-2.991
		c1.005-0.508,2.01-1.018,3.015-1.526c0.844,0.911,2.186,1.695,2.459,2.753c2.229,8.65-5.726,24.125-14.273,28.2
		c-1.986,0.948-4.583,1.612-4.475,4.459c0.116,3.04,2.887,1.951,4.601,2.583c3.376,1.248,3.736,4.034,0.774,5.291
		c-3.288,1.401-6.082,4.771-10.293,3.651c-0.938,0.854-1.986,0.891-3.102,0.413c-4.8-9.463-12.007-14.409-23.012-12.273
		c-2.641,0.512-4.358-0.599-5.194-3.141C208.409,132.129,209.666,129.986,212.797,129.087z"/>
	<path style="fill-rule:evenodd;clip-rule:evenodd;fill:#F1CF48;" d="M258.192,104.882c0,1.011,0.004,2.023,0.004,3.035
		c0.863,1.011,0.859,2.006-0.051,2.983c-3.559,0.974-6.891,1.862-10.776,0.306c-6.313-2.534-12.947-4.262-19.445-6.33
		c3.32-6.145,18.76-15.072,24.716-14.29C256.151,91.044,259.509,99.694,258.192,104.882z"/>
	<path style="fill-rule:evenodd;clip-rule:evenodd;fill:#F3D859;" d="M197.584,140.018c-4.17,2.524-10.035-0.431-13.551,4.201
		c-3.243-2.412-4.68-4.614-2.723-9.292c2.076-4.975,3.408-11.034-1.63-15.812c-1.657-1.569-1.522-3.252,0.229-4.386
		c3.113-2.015,4.664-5.935,8.575-6.915c0-0.001,0.315,0.254,0.315,0.254c-0.664,9.318-3.35,18.591-0.603,27.96
		c2.076,2.741,5.466,1.405,8.049,2.571C196.866,138.909,197.31,139.384,197.584,140.018z"/>
	<path style="fill-rule:evenodd;clip-rule:evenodd;fill:#E1D691;" d="M61.624,154.893c-1.063-0.271-2.402,0.39-3.405-1.276
		c2.235-0.139,4.247-0.263,6.258-0.389c3.039,0.039,6.08,0.077,9.12,0.114C69.907,156.191,65.625,154.465,61.624,154.893z"/>
	<path style="fill-rule:evenodd;clip-rule:evenodd;fill:#F1D658;" d="M202.775,168.181c-2.548-2.744-5.712-4.273-9.402-4.757
		c4.81-0.707,7.615-2.09,6.066-8.273c-1.336-5.34,4.356-9.034,5.785-13.954c3.264-2.526,5.32,0.028,7.574,1.779
		c1.206,1.194,2.443,2.358,3.998,3.119c3.527,2.709,5.519,6.813,8.845,9.712c2.381,3.423,0.844,7.383,1.521,11.044
		c-0.004,1.444-0.604,2.67-1.383,3.833c-2.158,3.007-3.626,6.506-6.379,9.103c-1.015,0.972-2.163,1.681-3.582,1.872
		c-4.38,0.439-4.256-4.678-7.3-5.896c-0.836-0.538-1.608-1.152-2.337-1.826C204.715,172.218,202.512,170.926,202.775,168.181z"/>
	<path style="fill-rule:evenodd;clip-rule:evenodd;fill:#F4DC5C;" d="M212.73,144.236c-2.842-0.177-4.191-4.037-7.506-3.04
		c-0.49-0.441-0.981-0.885-1.472-1.328c0.05-1.872,1.148-3.208,2.296-4.522c1.176-0.941,2.386-1.444,3.702-0.246
		c1.231,3.165,3.206,1.927,5.468,1.206c8.858-2.82,20.264,4.591,21.78,13.972c-3.04,2.535-6.409,1.625-7.555-1.291
		C225.78,139.63,219.171,142.656,212.73,144.236z"/>
	<path style="fill-rule:evenodd;clip-rule:evenodd;fill:#71706B;" d="M206.421,137.027c-0.889,0.946-1.779,1.894-2.668,2.841
		c-2.057,0.049-4.114,0.099-6.171,0.15c0.002,0,0.128-0.447,0.128-0.447c-1.714-7.452,3.521-9.933,8.837-12.354
		c1.381,0.971,1.628,2.406,1.618,3.945C208.437,133.367,205.56,134.638,206.421,137.027z"/>
	<path style="fill-rule:evenodd;clip-rule:evenodd;fill:#8E736D;" d="M173.471,177.554c6.901-7.609,15.615-10.104,25.583-9.048
		c0.964,0.817,1.011,1.82,0.595,2.916c-3.743,3.388-9.753-0.993-13.077,3.826c-2.565,2.598-6.746,2.832-8.845,6.101
		c-1.357,2.72-1.597,5.851-3.123,8.502c-1.146,2.154-2.186,4.36-3.192,6.583c-2.851,4.349-1.527,9.943-4.248,14.333
		c-1.046,1.474-1.779,3.383-4.14,3.102c-1.498-0.478-5.653-0.124-3.212-2.493c4.408-4.273,5.107-9.94,6.112-14.754
		C167.388,189.626,172.012,184.28,173.471,177.554z"/>
	<path style="fill-rule:evenodd;clip-rule:evenodd;fill:#A09F90;" d="M149.482,222.819c-0.091-0.475-0.122-0.952-0.093-1.433
		c3.208-4.13,7.518-4.061,12.046-3.166c2.287-1.275,4.266-3.758,7.365-1.903c1.875,2.248,0.881,4.281-0.467,6.289
		c-0.532,0.528-1.173,0.855-1.922,0.952c-4.023-0.757-8.084-2.439-11.992,0.425C152.564,224.477,150.824,224.48,149.482,222.819z"/>
	<path style="fill-rule:evenodd;clip-rule:evenodd;fill:#D4AF8C;" d="M168.594,216.776c-2.387,0.48-4.774,0.965-7.158,1.446
		c0.527-1.454,1.056-2.904,1.586-4.354c0.849-1.055,1.694-2.108,2.542-3.163c2.368-1.7,4.847-2.114,7.491-0.646
		C175.657,215.011,172.714,216.283,168.594,216.776z"/>
	<path style="fill-rule:evenodd;clip-rule:evenodd;fill:#EFD456;" d="M79.656,234.917c-0.012-0.973-0.025-1.948-0.037-2.922
		c3.773-11.274,10.142-15.225,21.441-12.675c5.719,1.29,9.722-2.9,14.733-3.646c0.478-0.025,0.946,0.037,1.401,0.191
		c7.455,4.573,15.54,7.046,24.292,7.3c0.51,0.391,1.019,0.782,1.542,1.16c8.496,1.423,17.187-2.22,25.592,1.037
		c0.031,5.803-4.734,5.753-8.273,5.974c-8.936,0.556-18.022-0.471-26.326,4.211c-2.203,1.241-4.447,0.412-6.048-1.545
		c-3.272-4.006-6.334-2.862-9.554,0.122c-3.103,2.875-6.837,5.109-8.445,9.373c-1.041,2.759-3.491,4.354-5.941,2.735
		c-4.439-2.936-8.655-3.164-13.368-1.129c-1.124,0.484-2.445-0.186-3.477-0.991C83.112,242.332,83.853,236.603,79.656,234.917z"/>
	<path style="fill-rule:evenodd;clip-rule:evenodd;fill:#68614E;" d="M96.486,200.17c-2.071-1.94-4.143-3.882-6.214-5.818
		c3.393-0.865,6.776-0.846,10.149,0.101C99.108,196.357,97.797,198.263,96.486,200.17z"/>
	<path style="fill-rule:evenodd;clip-rule:evenodd;fill:#827850;" d="M109.742,211.07c-3.965-1.994-7.089-5.072-10.311-8.023
		C104.916,203.09,108.62,205.423,109.742,211.07z"/>
	<path style="fill-rule:evenodd;clip-rule:evenodd;fill:#ADA049;" d="M141.712,224.38c-0.029-0.414-0.104-0.819-0.226-1.214
		c2.664-0.116,5.328-0.23,7.994-0.347c1.945,0.006,3.888,0.012,5.831,0.018c3.553-1.125,7.103-1.383,10.651,0.018
		c0.497,0.026,0.989-0.006,1.479-0.093c1.166-0.295,1.687,0.158,1.556,1.353C159.918,225.84,150.821,225.677,141.712,224.38z"/>
	<path style="fill-rule:evenodd;clip-rule:evenodd;fill:#776361;" d="M199.131,171.546c-0.024-1.015-0.05-2.027-0.077-3.042
		c1.239-0.106,2.479-0.215,3.72-0.321c1.361,1.346,2.722,2.691,4.081,4.039c1.722,4.099,2.457,8.323,1.631,12.741
		c-0.725,2.663-0.86,5.528-1.854,8.063c-1.22,3.111-3.05,6.147-7.052,2.699c-1.183-3.148-0.592-6.146,0.769-9.075
		C203.609,181.325,199.923,176.549,199.131,171.546z"/>
	<path style="fill-rule:evenodd;clip-rule:evenodd;fill:#727068;" d="M102.136,136.753c-1.785,0.36-2.902-0.927-4.224-1.708
		c0.531-8.047-1.417-16.249,1.515-24.146c0.632-0.437,1.277-0.458,1.939-0.074c2.317,2.092,3.441,4.65,3.526,7.829
		c0.096,3.589-0.678,6.846,2.471,10.498C109.909,132.107,107.693,136.724,102.136,136.753z"/>
	<path style="fill-rule:evenodd;clip-rule:evenodd;fill:#817459;" d="M100.873,110.955c-0.482-0.002-0.965-0.02-1.446-0.055
		c-0.053-0.483-0.068-0.964-0.043-1.449c4.292-3.94,8.362-8.337,15.068-7.265c0.972,1.173,0.884,2.71-0.356,3.1
		C109.484,106.736,105.849,110.419,100.873,110.955z"/>
	<path style="fill-rule:evenodd;clip-rule:evenodd;fill:#8E8674;" d="M89.658,191.425c-4.977-2.181-8.262-5.974-10.359-10.896
		c2.575,1.789,5.169,2.981,7.884,0.24c0.247,3.621,2.958,5.99,4.544,8.93C91.036,190.274,90.347,190.85,89.658,191.425z"/>
	<path style="fill-rule:evenodd;clip-rule:evenodd;fill:#807E7A;" d="M100.873,110.955c3.119-5.104,10.221-4.041,13.579-8.772
		c1.003,0.826,2.005,1.651,3.007,2.473c1.542,3.612,0.297,8.359,4.447,10.91c-1.057,9.789-1.597,19.822-11.971,25.175
		c-1.988,0.091-3.979,0.179-5.966,0.27c-0.609-1.42-1.22-2.839-1.832-4.258c2.041-1.056,3.89-2.418,4.433-4.731
		c0.253-1.079-0.294-2.347-0.478-3.529c-10.231,3.143-3.252-3.401-3.145-5.785C103.131,118.598,102.889,114.641,100.873,110.955z"/>
	<path style="fill-rule:evenodd;clip-rule:evenodd;fill:#F5DE64;" d="M87.189,244.113c2.069,0.118,4.18-0.13,5.743-1.452
		c3.678-3.115,6.632-2.12,9.75,0.922c2.28,2.223,4.684,3.491,5.749-1.314c1.461-6.585,8.526-8.064,12.255-12.725
		c1.235-1.543,6.666-1.741,7.361,0.881c2.004,7.545,5.471,3.518,8.486,1.616c6.311-3.982,13.509-2.333,20.101-2.581
		c4.768-0.18,8.458-1.196,12.235-3.446c2.755-4.668,8.645-3.853,12.25-7.026c4.13-3.882,9.489-5.821,14.084-8.966
		c1.804-0.926,3.508-2.021,5.173-3.174c2.068-0.9,3.704-3.208,6.427-2.029c0.991,6.136,7.167,4.555,10.189,5.15
		c8.351,1.641,6.246,3.777,2.742,8.868c-4.016,5.826-10.293,7.71-15.521,11.391c-2.236,1.577-4.837,2.696-6.866,4.485
		c-2.402,2.114-5.394,5.106-4.67,7.97c0.744,2.941,4.829,1.046,7.414,1.381c1.996,0.259,3.367,0.816,3.618,2.979
		c-4.108,0.368-8.981-0.436-9.171,5.961c-0.435,0.146-0.882,0.215-1.342,0.2c-1.948,1.624-4.34,1.362-6.516,1.134
		c-6.769-0.714-12.327,1.787-18.486,4.446c-7.106,3.068-15.16,6.229-23.554,3.429c-1.233-2.782-3.643-3.121-6.256-2.979
		c-9.521,0.521-18.28-1.393-27.393-4.835c-6.725-2.538-13.943-4.221-20.602-7.357C88.956,246.363,87.849,245.536,87.189,244.113z"/>
	<path style="fill-rule:evenodd;clip-rule:evenodd;fill:#E7CF51;" d="M234.861,180.725c0.321,0.108,1.385,0.138,1.677,0.626
		c4.719,7.931,6.943,2.914,9.714-1.607c1.158-1.894,2.004-5.905,5.044-4.412c3.289,1.612,4.563,6.079,3.368,9.152
		c-1.768,4.548-4.987,8.587-7.918,12.604c-1.369,1.878-4.033,2.526-6.149,2.046c-2.612-0.594-1.844-2.972-1.524-5.019
		c0.593-3.808-2.786-4.085-5.032-5.474c-1.988-1.229-3.35-3.1-2.917-5.693C231.438,181.081,232.778,180.604,234.861,180.725z"/>
	<path style="fill-rule:evenodd;clip-rule:evenodd;fill:#797C77;" d="M224.731,169.643c0.389-0.967,0.776-1.935,1.163-2.902
		c-0.857-3.367,2.779-6.358,0.808-9.818c0.382-6.721,4.12-3.99,7.377-2.632c0.887,0.477-0.244-0.141,0.684,0.21
		c1.74,0.654,3.862,3.949,5.092-0.537c4.297,1.069,9.263,1.669,5.739,8.196c-0.843,0.134-1.683,0.268-2.525,0.404
		c-2.402,0.002-4.805,0.004-7.208,0.004c-4.719,1.338-3.487,5.859-4.815,9.011c0.018,0.463-0.065,0.906-0.25,1.329
		C227.955,173.343,223.982,175.875,224.731,169.643z"/>
	<path style="fill-rule:evenodd;clip-rule:evenodd;fill:#878173;" d="M224.731,169.643c0.337,4.217,4.676,1.003,6.063,3.265
		c-2.036,3.494-4.073,6.989-6.11,10.484c-3.047-0.061-5.608-0.78-6.008-4.431C220.493,175.724,221.955,172.258,224.731,169.643z"/>
	<path style="fill-rule:evenodd;clip-rule:evenodd;fill:#8F8958;" d="M206.803,204.818c-2.039,1.06-4.078,2.118-6.117,3.178
		c-2.022-2.924,0.271-4.55,1.979-6.23c2.82-2.774,5.547-5.635,8.294-8.48c2.281-1.472,3.452-6.634,7.511-2.306
		C215.085,196.019,211.172,200.611,206.803,204.818z"/>
	<path style="fill-rule:evenodd;clip-rule:evenodd;fill:#A39E80;" d="M218.677,178.961c2.004,1.478,4.006,2.955,6.008,4.431
		c-0.077,3.082-2.354,4.511-4.524,6.018c-1.931-0.62-3.937-0.653-5.935-0.782c-0.966-0.492-1.634-1.237-1.955-2.279
		c-0.018-2.772,1.831-4.298,3.831-5.724C216.96,180.07,217.819,179.517,218.677,178.961z"/>
	<path style="fill-rule:evenodd;clip-rule:evenodd;fill:#F5DE64;" d="M224.873,203.035c-0.202,1.584-0.116,3.877-2.486,3.617
		c-2.108-0.229-3.216-2.188-3.4-4.339c-0.17-1.982,0.521-3.431,2.827-3.456C224.669,198.824,224.855,200.813,224.873,203.035z"/>
	<path style="fill-rule:evenodd;clip-rule:evenodd;fill:#878173;" d="M231.045,171.578c-0.265-4.002-2.556-9.086,4.815-9.011
		C234.257,165.57,232.648,168.575,231.045,171.578z"/>
	<path style="fill-rule:evenodd;clip-rule:evenodd;fill:#746B66;" d="M214.381,188.16c2.333-1.468,4.223-0.885,5.779,1.251
		c-0.563,0.522-1.127,1.045-1.69,1.568c-3.481-1.698-4.335,1.238-5.716,3.24C209.524,191.868,209.828,190.745,214.381,188.16z"/>
	<path style="fill-rule:evenodd;clip-rule:evenodd;fill:#ECD957;" d="M144.641,262.213c9.143-3.048,19.415-1.379,27.827-8.167
		c6.027-4.869,13.735-1.628,20.729-0.842c0.457,2.995,0.915,5.992,1.37,8.985c-17.135,5.903-34.864,7.865-52.856,7.526
		c-6.596-0.126-13.292-0.512-19.605-2.957C128.899,261.677,136.748,261.831,144.641,262.213z"/>
	<path style="fill-rule:evenodd;clip-rule:evenodd;fill:#F5EEA8;" d="M76.671,241.027c-2.033-2.01-4.067-4.016-6.1-6.025
		c3.1-7.294,5.994,0.524,8.999,0.124C79.329,237.449,80.67,240.551,76.671,241.027z"/>
	<path style="fill-rule:evenodd;clip-rule:evenodd;fill:#EEDB71;" d="M245.594,162.159c0.842-5.487-2.179-7.158-6.984-7.073
		c-0.627,0.372-1.283,0.455-1.977,0.209c-4.859-1.169-8.778-4.23-13.143-6.402c-2.268-1.129-4.686-2.804-7.568-1.665
		c-2.016,0.018-3.102-0.955-3.191-2.991c5.656-6.001,13.172-5.158,16.419,1.76c1.528,3.255,4.078,4.974,7.85,4.282
		c1.001,0.006,2.002,0.01,3.003,0.016c1.409,4.254,7.022,3.357,8.792,7.182c0.751,1.624,3.923,2.339,2.146,4.863
		C249.265,164.719,247.371,162.732,245.594,162.159z"/>
	<path style="fill-rule:evenodd;clip-rule:evenodd;fill:#908A87;" d="M186.9,138.304c-2.854-10.297-3.555-20.459,1.897-30.236
		c3.986-1.069,6.366-7.631,11.879-3.469c0.534,0.485,0.789,1.093,0.807,1.808c-0.211,1.719-0.78,3.351-1.214,5.018
		c-1.163,5.73-1.068,12.16-8.957,13.653c-2.875,0.544-1.179,2.915-0.55,4.177C193.096,133.93,191.714,136.792,186.9,138.304z"/>
	<path style="fill-rule:evenodd;clip-rule:evenodd;fill:#706445;" d="M200.688,106.418c-0.002-0.604-0.006-1.211-0.008-1.818
		c6.982-0.6,5.767,5.759,7.883,9.29c4.507,6.58,3.799,13.841-1.818,18.714c-0.065-1.696-0.13-3.393-0.193-5.089
		c-0.597-0.52-1.011-1.16-1.253-1.91C205.594,118.772,203.162,112.59,200.688,106.418z"/>
	<path style="fill-rule:evenodd;clip-rule:evenodd;fill:#D9C970;" d="M206.744,132.604c3.988-5.908,3.863-12.218,1.818-18.713
		c3.293-0.146,4.354,1.602,4.24,4.671c-0.132,3.503-0.016,7.017-0.006,10.525c-0.847,2.09-3.261,3.387-3.046,6.015
		c-1.438,0.071-2.65,0.535-3.328,1.923C204.328,135.392,205.774,134.017,206.744,132.604z"/>
	<path style="fill-rule:evenodd;clip-rule:evenodd;fill:#F4DC5C;" d="M258.146,110.9c0.018-0.994,0.035-1.988,0.051-2.983
		c4.056,5.59-1.115,11.028-0.298,16.571c0.013,0.088-0.368,0.329-0.567,0.331c-0.229,0.002-0.459-0.183-0.688-0.286
		C256.444,119.913,256.73,115.344,258.146,110.9z"/>
	<path style="fill-rule:evenodd;clip-rule:evenodd;fill:#81807B;" d="M206.624,126.123c-0.002,0.465-0.023,0.93-0.071,1.392
		c-3.231,3.812-8.374,6.222-8.843,12.056c-3.632-0.175-7.499,1.677-10.81-1.265c2.808-3.18,4.436-6.215,1.305-10.46
		c-1.229-1.669-2.443-5.165,3.028-4.515c3.519,0.419,6.238-2.701,6.413-6.888c0.081-1.943-0.463-4.081,1.473-5.542
		C205.067,114.275,204.204,121.007,206.624,126.123z"/>
	<path style="fill-rule:evenodd;clip-rule:evenodd;fill:#8D7F5A;" d="M215.922,147.228c-1.013-2.386-0.854-2.674,2.099-2.262
		c7.629,1.064,12.252,7.566,19.154,9.735c-0.698,1.295-2.422,0.521-3.226,1.601c-1.773,1.462-5.832-7.222-6.006,1.354
		c-1.781,1.16-2.262-0.55-3.125-1.417C220.563,154.511,219.337,149.787,215.922,147.228z"/>
	<path style="fill-rule:evenodd;clip-rule:evenodd;fill:#E3D37E;" d="M216.102,180.624c-0.075,2.595-2.302,3.879-3.518,5.78
		c-0.266,1.9-1.3,3.256-3.245,3.231c-1.982-0.023-2.016-1.641-1.872-3.156c0.232-4.014,0.036-8.064,0.983-12.023
		C213.881,172.939,211.591,180.998,216.102,180.624z"/>
	<path style="fill-rule:evenodd;clip-rule:evenodd;fill:#E2D78B;" d="M224.818,156.238c1.04,0.473,2.083,0.946,3.125,1.419
		c2.953,3.844-1.907,5.935-2.045,9.083C223.616,163.438,226.604,159.594,224.818,156.238z"/>
	<path style="fill-rule:evenodd;clip-rule:evenodd;fill:#817527;" d="M208.45,174.456c0.981,4.138,0.188,8.166-0.755,12.186
		c-0.345-0.046-0.691-0.093-1.036-0.139c0.067-4.76,0.132-9.517,0.197-14.277C207.387,172.967,207.918,173.712,208.45,174.456z"/>
	<path style="fill-rule:evenodd;clip-rule:evenodd;fill:#E5A2A1;" d="M202.366,186.607c-2.219,2.611-1.413,5.917-2.04,8.893
		c-0.347,0.606-0.695,1.214-1.042,1.822c-0.662,0.761,0.234-0.146-0.404,0.633c-2.437,2.964-5.125,6.3-9.323,4.31
		c-3.783-1.793,0.004-5.437-0.875-8.136c-0.116-2.511,1.4-4.976,0.167-7.502c-3.41-3.641-9.434-2.003-12.529-6.226
		c1.309-4.722,6.432-3.506,9.218-5.921C195.633,172.297,199.617,178.594,202.366,186.607z"/>
	<path style="fill-rule:evenodd;clip-rule:evenodd;fill:#E39299;" d="M176.319,180.401c5.505,0.187,10.211,2.977,15.249,4.684
		c-5.171,4.918-9.417,10.26-11.032,17.579c-0.79,3.576-1.734,8.142-7.154,8.18c-2.605-0.046-5.21-0.093-7.816-0.137
		c2.666-4.697,0.347-11.002,4.866-15.101c2.481,1.907,1.14,5.137,2.666,7.735c3.007-4.693,0.178-9.269,0.381-13.737
		C174.325,186.505,174.41,183.171,176.319,180.401z"/>
	<path style="fill-rule:evenodd;clip-rule:evenodd;fill:#CA929B;" d="M202.366,186.607c-0.483-0.093-1.307-0.055-1.397-0.293
		c-2.697-7.161-8.096-10.749-15.432-11.834c3.107-7.58,8.975-2.371,13.596-2.937C203.964,175.759,204.979,180.793,202.366,186.607z"
		/>
	<path style="fill-rule:evenodd;clip-rule:evenodd;fill:#EC8380;" d="M173.479,189.604c3.801,3.263,2.971,7.681,2.939,11.882
		c-0.02,2.636-2.041,4.823-3.872,4.904c-2.573,0.114-2.008-2.869-2.093-4.767c-0.09-2.002-0.021-4.01-0.021-6.018
		C170.708,193.23,171.356,191.043,173.479,189.604z"/>
	<path style="fill-rule:evenodd;clip-rule:evenodd;fill:#827C71;" d="M173.382,210.844c3.948-3.146,4.829-7.719,6.397-12.219
		c2.029-5.811,3.99-12.433,11.789-13.54c0.608,3.195-0.682,6.068-1.537,9.016c-1.973,3.81-1.931,8.209-3.559,12.12
		c-1.76,2.904-4.177,5.665-1.994,9.415c-1.72,2.831-4.636,4.053-7.385,5.513c-2.941-0.575-4.693,3.771-7.942,1.933
		c-0.569-0.106-1.139-0.213-1.71-0.319c0.386-1.995,0.771-3.991,1.154-5.985C170.317,214.9,173.601,214.283,173.382,210.844z"/>
	<path style="fill-rule:evenodd;clip-rule:evenodd;fill:#BBB8AC;" d="M165.963,222.854c-3.551-0.006-7.101-0.01-10.651-0.018
		C158.866,220.26,162.418,219.079,165.963,222.854z"/>
	<path style="fill-rule:evenodd;clip-rule:evenodd;fill:#E7DB85;" d="M169.151,223.081c2.5-1.048,5.001-2.092,7.499-3.141
		c1.994,1.206,3.909-2.581,5.923-0.089c-3.314,4.842-9.395,3.529-13.704,6.162c-9.103-0.118-18.205-0.232-27.308-0.381
		c-0.095-0.002-0.276-0.432-0.25-0.639c0.029-0.218,0.258-0.411,0.4-0.614C150.859,223.964,160.117,225.877,169.151,223.081z"/>
	<path style="fill-rule:evenodd;clip-rule:evenodd;fill:#958D7D;" d="M199.166,195.713c0.388-0.073,0.776-0.144,1.164-0.213
		c3.462-0.883,3.462-0.883,6.331-8.997c0.349,0.022,0.695,0.065,1.038,0.135c1.856,4.703,3.246-0.402,4.887-0.23
		c0.598,0.583,1.194,1.168,1.793,1.753c-0.153,2.124-4.693,3.07-1.625,6.06c-3.69,4.882-9.811,7.635-12.068,13.774
		c-0.826,1.787-2.219,2.737-4.184,2.855c-3.117,0.027-4.912,3.665-8.273,3.028c-1.33-1.681-1.326-3.553-0.794-5.5
		C189.809,202.739,197.724,202.227,199.166,195.713z"/>
	<path style="fill-rule:evenodd;clip-rule:evenodd;fill:#867F52;" d="M188.516,213.681c2.536-1.299,4.702-3.634,7.982-2.831
		c-4.639,3.001-9.282,6.001-13.925,9.002c-1.984-0.612-3.907,2.935-5.923,0.089c2.457-1.539,4.912-3.077,7.369-4.614
		C184.978,213.295,186.349,212.398,188.516,213.681z"/>
	<path style="fill-rule:evenodd;clip-rule:evenodd;fill:#665F41;" d="M233.949,156.302c0.614-1.458,2.033-1.295,3.224-1.599
		c0.521-0.037,0.999,0.089,1.435,0.381c1.011,1.613,3.735,1.497,3.96,4.098C238.741,161.098,237.026,156.53,233.949,156.302z"/>
	<path style="fill-rule:evenodd;clip-rule:evenodd;fill:#71706B;" d="M206.624,126.123c-3.858-4.407-4.842-10.228-7.505-15.223
		c0.144-1.626-0.215-3.429,1.568-4.481C207.668,111.479,207.144,118.802,206.624,126.123z"/>
	<path style="fill-rule:evenodd;clip-rule:evenodd;fill:#CC9B96;" d="M199.166,195.713c-0.589,6.599-6.016,8.947-10.587,12.047
		c-1.909,1.102-3.148,0.879-3.231-1.634c0.741-4.326,1.602-8.608,4.684-12.025c3.47,2.101-2.859,6.01,0.859,7.131
		C194.889,202.434,196.061,197.147,199.166,195.713z"/>
	<path style="fill-rule:evenodd;clip-rule:evenodd;fill:#A4938F;" d="M185.348,206.126c0.703,1.283,1.874,1.644,3.231,1.634
		c-0.02,1.975-0.041,3.948-0.062,5.923c-1.499,0.546-2.998,1.094-4.498,1.644C179.756,213.984,180.13,211.405,185.348,206.126z"/>
</g>
</svg>
