<?xml version="1.0" encoding="utf-8"?>
<!-- Generator: Adobe Illustrator 16.0.0, SVG Export Plug-In . SVG Version: 6.00 Build 0)  -->
<!DOCTYPE svg PUBLIC "-//W3C//DTD SVG 1.1//EN" "http://www.w3.org/Graphics/SVG/1.1/DTD/svg11.dtd">
<svg version="1.1" id="Layer_1" xmlns="http://www.w3.org/2000/svg" xmlns:xlink="http://www.w3.org/1999/xlink" x="0px" y="0px"
	 width="828px" height="828px" viewBox="0 0 828 828" enable-background="new 0 0 828 828" xml:space="preserve">
<g>
	<path fill="#66BC7F" d="M828.788,174.979c0,4.998,0,648.017,0,653.018C552.621,828,276.452,828,0.285,828
		c-0.095-1.614-0.273-641.251-0.273-642.865C-0.003,127.275-0.001,69.415,0,11.555c0-1.749,0.126-3.508-0.01-5.246
		C-0.213,3.73,0.504,2.414,3.446,2.397c3.489-0.021,6.976-0.547,10.461-0.888c23.746-2.323,47.432-1.851,71.168,0.645
		c21.76,2.286,43.578,4.201,65.416,5.508c31.468,1.883,62.987,2.874,94.468,4.596c40.613,2.223,81.052,6.351,121.192,12.965
		c34.891,5.748,69.721,11.867,104.554,17.971c34.023,5.961,67.222,15.167,100.202,25.331c15.38,4.74,31.05,8.596,46.705,12.377
		c9.211,2.225,18.753,3.092,27.969,5.31c22.827,5.493,44.291,14.758,65.602,24.412c28.029,12.695,55.637,26.169,81.785,42.473
		C804.84,160.497,816.844,167.69,828.788,174.979z"/>
</g>
<rect x="-220.475" y="-49.5" fill="#A9DCF7" width="99" height="99"/>
<rect x="-220.475" y="71.015" fill="#66BC7F" width="99" height="99"/>
<rect x="-116" y="365" fill="#F9CAD7" width="99" height="99"/>
</svg>
