<?xml version="1.0" encoding="iso-8859-1"?>
<!-- Generator: Adobe Illustrator 16.0.0, SVG Export Plug-In . SVG Version: 6.00 Build 0)  -->
<!DOCTYPE svg PUBLIC "-//W3C//DTD SVG 1.1//EN" "http://www.w3.org/Graphics/SVG/1.1/DTD/svg11.dtd">
<svg version="1.1" id="Layer_1" xmlns="http://www.w3.org/2000/svg" xmlns:xlink="http://www.w3.org/1999/xlink" x="0px" y="0px"
	 width="300px" height="300px" viewBox="0 0 300 300" style="enable-background:new 0 0 300 300;" xml:space="preserve">
<g>
	<path style="fill:#0A0707;" d="M262.984,80.919c-0.874,0.272-11.916,5.275-8.519,7.14c4.037,2.214,7.154,0.89,11.229-0.188
		c8.363,25.146,1.44,79.869-10.695,91.067c-2.5-9.463-4.792-19.445-7.819-29.195c-2.851-9.188-7.223-12.479-14.88-12.648
		c-7.924-0.178-15.319,4.336-17.589,12.123c-1.306,4.469-1.266,9.602-0.706,14.304c2.175,18.239,2.453,36.442-0.151,54.626
		c-0.303,2.125-1.519,5.188-3.147,5.892c-11.409,4.947-22.696,11.979-34.65,13.549c-56.651,7.441-101.576-12.666-133.101-60.898
		c-4.119-6.303-7.19-13.29-11.113-20.642c1.857-0.593,10.478-2.025,10.008-5.358c-0.411-2.909-6.393-2.889-8.356-2.531
		c-5.512,1.009-12.308,4.09-15.712,8.645c-6.958,9.314,2.772,7.115,7.989,2.426c11.049,23.309,25.118,43.531,45.389,58.288
		c40.811,29.703,85.123,39.379,132.494,17.453c44.973-20.813,69.485-56.764,72.146-106.552c0.724-13.675-0.741-27.471-1.223-41.868
		c1.267,0.132,3.333-0.251,5.267-0.897c4.054-1.355,7.515-3.87,1.734-5.203C275.509,79.054,268.953,79.057,262.984,80.919z
		 M247.614,186.877c1.198,6.716-4.172,10.477-7.655,14.103c-1.69-12.128-3.29-24.402-5.24-36.616
		c-0.264-1.678-2.259-3.082-3.451-4.613c-0.311,1.988-1.038,4.014-0.851,5.948c1.039,10.729,2.613,21.415,3.381,32.161
		c0.621,8.656-3.614,14.893-12.177,18.888c0.271-4.678,0.827-9.024,0.712-13.357c-0.351-13.384-0.856-26.766-1.51-40.138
		c-0.283-5.754-1.616-11.514,3.426-16.176c5.474-5.067,13.355-4.2,15.316,2.796C242.971,162.012,245.4,174.451,247.614,186.877z"/>
	<path style="fill:#0A0707;" d="M192.988,115.039c9.48-2.505,13.521-18.329,9.025-35.345c-2.547-9.64-7.283-17.59-12.642-22.219
		c-4.097-3.543-8.551-5.144-12.663-4.057c-3.792,1.001-6.712,4.138-8.564,8.624c-2.785,6.733-3.164,16.511-0.467,26.723
		C172.174,105.781,183.508,117.543,192.988,115.039z"/>
	<path style="fill:#0A0707;" d="M101.578,138.02c4.636,1.855,8.806,0.108,11.226-4.789c4.63-6.426,5.909-18.221,2.623-30.661
		c-3.106-11.755-9.473-20.999-16.237-24.77c-2.373-1.945-5.195-3.03-8.703-2.171c-2.861,0.698-4.844,2.355-6.089,4.469
		c-5.181,6.187-6.749,18.512-3.306,31.543C84.843,125.84,93.355,136.377,101.578,138.02z"/>
	<path style="fill:#F8C9D7;" d="M224.249,147.076c-5.042,4.662-3.709,10.422-3.426,16.176c0.653,13.372,1.159,26.754,1.51,40.138
		c0.115,4.333-0.441,8.68-0.712,13.357c8.563-3.995,12.798-10.231,12.177-18.888c-0.768-10.746-2.342-21.433-3.381-32.161
		c-0.188-1.935,0.54-3.96,0.851-5.948c1.192,1.531,3.188,2.936,3.451,4.613c1.95,12.214,3.55,24.488,5.24,36.616
		c3.483-3.626,8.854-7.387,7.655-14.103c-2.214-12.426-4.644-24.865-8.049-37.004C237.604,142.876,229.723,142.009,224.249,147.076z
		"/>
</g>
<rect x="340" y="-40" style="fill:#F8C9D7;" width="99" height="99"/>
<rect x="340" y="88.881" style="fill:#0A0707;" width="99" height="99"/>
</svg>
