<?xml version="1.0" encoding="iso-8859-1"?>
<!-- Generator: Adobe Illustrator 16.0.0, SVG Export Plug-In . SVG Version: 6.00 Build 0)  -->
<!DOCTYPE svg PUBLIC "-//W3C//DTD SVG 1.1//EN" "http://www.w3.org/Graphics/SVG/1.1/DTD/svg11.dtd">
<svg version="1.1" id="Layer_1" xmlns="http://www.w3.org/2000/svg" xmlns:xlink="http://www.w3.org/1999/xlink" x="0px" y="0px"
	 width="300px" height="300px" viewBox="0 0 300 300" style="enable-background:new 0 0 300 300;" xml:space="preserve">
<g>
	<g>
		<path style="fill-rule:evenodd;clip-rule:evenodd;fill:#0A0707;" d="M153.418,101.557c1.498-2.007,2.724-4.313,4.54-5.973
			c14.615-13.36,31.811-16.699,50.148-10.496c17.833,6.033,29.176,18.828,32.649,37.759c3.824,20.843-2.73,37.982-18.296,52.24
			c-19.951,18.275-39.543,36.941-59.281,55.448c-7.321,6.866-14.732,7.001-22.002,0.196c-20.889-19.554-41.901-38.98-62.557-58.779
			c-28.775-27.58-18.716-75.576,18.42-87.187c18.909-5.912,36.133-1.898,50.604,12.144c1.121,1.088,2.241,2.177,3.39,3.235
			c0.215,0.199,0.56,0.259,0.846,0.384C152.391,100.871,152.904,101.215,153.418,101.557z"/>
	</g>
	<g>
		<path style="fill:#0A0707;" d="M151.012,290.717C73.42,290.717,10.295,227.592,10.295,150
			c0-77.591,63.125-140.716,140.717-140.716c77.589,0,140.714,63.125,140.714,140.716
			C291.726,227.592,228.601,290.717,151.012,290.717z M151.012,22.471C80.691,22.471,23.482,79.68,23.482,150
			c0,70.318,57.209,127.529,127.53,127.529c70.317,0,127.528-57.211,127.528-127.529C278.54,79.68,221.329,22.471,151.012,22.471z"
			/>
	</g>
	<g>
		<path style="fill:#0A0707;" d="M71.006,241.473c-1.688,0-3.375-0.644-4.663-1.932c-2.575-2.574-2.575-6.749,0-9.323
			L230.265,66.294c2.574-2.574,6.75-2.574,9.324,0c2.576,2.575,2.576,6.75,0,9.325L75.668,239.541
			C74.381,240.829,72.693,241.473,71.006,241.473z"/>
	</g>
</g>
<rect x="-166" y="-27" style="fill:#0A0707;" width="99" height="99"/>
</svg>
