<?xml version="1.0" encoding="iso-8859-1"?>
<!-- Generator: Adobe Illustrator 16.0.0, SVG Export Plug-In . SVG Version: 6.00 Build 0)  -->
<!DOCTYPE svg PUBLIC "-//W3C//DTD SVG 1.1//EN" "http://www.w3.org/Graphics/SVG/1.1/DTD/svg11.dtd">
<svg version="1.1" id="Layer_1" xmlns="http://www.w3.org/2000/svg" xmlns:xlink="http://www.w3.org/1999/xlink" x="0px" y="0px"
	 width="300px" height="300px" viewBox="0 0 300 300" style="enable-background:new 0 0 300 300;" xml:space="preserve">
<g>
	<g>
		<path style="fill:#0A0707;" d="M94.79,92.188c1.946,0,3.709,0,5.473,0c40.228,0,80.456-0.003,120.684,0.003
			c11.055,0.002,14.801,4.682,11.883,15.399c-5.002,18.362-10.217,36.668-15.408,54.979c-1.648,5.818-4.377,7.824-10.4,7.828
			c-30.756,0.021-61.508,0.01-92.264,0.02c-5.33,0.002-5.33,0.023-4.309,5.271c2,10.28,2,10.279,12.544,10.28
			c26.91,0.005,53.819-0.011,80.729,0.046c2.168,0.004,4.396,0.27,6.494,0.807c3.271,0.837,4.982,3.59,4.395,6.525
			c-0.465,2.32-2.342,4.758-4.28,6.25c-1.399,1.078-3.931,0.918-5.955,0.92c-31.578,0.049-63.157,0.024-94.735,0.032
			c-7.394,0.001-9.516-1.616-10.892-8.847c-4.765-25.032-9.472-50.074-14.196-75.114c-1.015-5.381-2.169-10.743-2.946-16.159
			c-0.426-2.961-1.723-3.876-4.608-3.726c-3.968,0.206-7.971,0.193-11.935-0.084c-3.086-0.216-6.336-1.164-6.971-4.676
			c-0.392-2.17-0.165-5.144,1.086-6.727c1.308-1.654,4.136-2.772,6.37-2.899c6.57-0.373,13.175-0.24,19.763-0.11
			C91.014,82.318,92.56,84.002,94.79,92.188z"/>
		<path style="fill:#0A0707;" d="M125.791,225.227c0.034,8.072-6.28,14.64-14.097,14.66c-8.138,0.023-14.719-6.438-14.752-14.484
			c-0.034-7.93,6.619-14.448,14.794-14.494C119.214,210.865,125.758,217.531,125.791,225.227z"/>
		<path style="fill:#0A0707;" d="M214.834,225.975c-0.336,7.979-6.996,14.221-14.852,13.92c-8.117-0.312-14.26-7.018-13.965-15.242
			c0.276-7.676,7.487-14.273,15.063-13.784C208.982,211.379,215.164,218.169,214.834,225.975z"/>
	</g>
	<g>
		<path style="fill:#0A0707;" d="M150.246,290.717C72.655,290.717,9.53,227.592,9.53,150C9.53,72.409,72.655,9.284,150.246,9.284
			c77.59,0,140.715,63.125,140.715,140.716C290.961,227.592,227.836,290.717,150.246,290.717z M150.246,22.471
			C79.926,22.471,22.717,79.68,22.717,150c0,70.318,57.209,127.529,127.529,127.529c70.318,0,127.529-57.211,127.529-127.529
			C277.775,79.68,220.564,22.471,150.246,22.471z"/>
	</g>
	<g>
		<path style="fill:#0A0707;" d="M70.241,241.473c-1.688,0-3.375-0.644-4.663-1.932c-2.575-2.574-2.575-6.749,0-9.323L229.5,66.294
			c2.574-2.574,6.75-2.574,9.324,0c2.576,2.575,2.576,6.75,0,9.325L74.903,239.541C73.616,240.829,71.928,241.473,70.241,241.473z"
			/>
	</g>
</g>
<rect x="-177.333" y="-10.333" style="fill:#CCEAE9;" width="99" height="99"/>
<rect x="-149.333" y="45.667" style="fill:#0A0707;" width="99" height="99"/>
</svg>
