<?xml version="1.0" encoding="iso-8859-1"?>
<!-- Generator: Adobe Illustrator 23.0.6, SVG Export Plug-In . SVG Version: 6.00 Build 0)  -->
<svg version="1.1" id="Layer_1" xmlns="http://www.w3.org/2000/svg" xmlns:xlink="http://www.w3.org/1999/xlink" x="0px" y="0px"
	 viewBox="0 0 500 218.836" style="enable-background:new 0 0 500 218.836;" xml:space="preserve">
<rect x="-129.409" y="-222.209" style="fill:#0A0707;" width="99" height="99"/>
<g>
	<path style="fill:#66BC7F;stroke:#0A0808;stroke-width:2;stroke-miterlimit:10;" d="M190.768,155.892
		c-3.032,3.368-5.227,6.376-7.957,8.734c-9.174,7.928-20.396,6.379-25.776-4.467c-3.748-7.554-5.508-16.143-8.138-24.276
		c-1.089-3.367-1.747-6.957-3.345-10.042c-0.843-1.627-3.334-3.367-4.992-3.28c-1.942,0.102-4.834,1.724-5.468,3.414
		c-1.612,4.291-2.941,8.972-3.034,13.525c-0.198,9.7,0.355,19.423,0.81,29.126c0.224,4.779,0.155,9.096-5.414,10.738
		c-5.774,1.703-11.85,0.024-13.497-5.275c-2.292-7.373-4.168-15.159-4.475-22.842c-0.598-14.95-0.004-29.951,0.141-44.93
		c0.067-6.897,1.584-8.883,7.238-9.804c5.406-0.881,10.124,2.198,11.651,7.828c0.532,1.963,0.7,4.058,0.801,6.105
		c0.09,1.827-0.142,3.671-0.279,6.445c1.372-1.109,2.157-1.675,2.866-2.328c7.924-7.293,16.804-6.727,22.091,2.749
		c4.104,7.357,6.375,15.81,9.234,23.861c1.557,4.386,2.49,9.001,3.981,13.415c1.411,4.176,4.448,5.41,7.512,2.15
		c7.616-8.103,15.048-16.459,14.818-28.882c-0.034-1.844,0.253-3.736,0.662-5.541c2.529-11.169,6.779-14.264,18.223-13.069
		c0.3-1.337,0.644-2.722,0.92-4.121c1.192-6.04,3.652-11.138,10.116-12.576c6.684-1.487,13.174,0.285,16.319,6.309
		c3.697,7.082,5.547,15.18,8.136,22.859c0.35,1.037,0.339,2.202,0.637,4.314c3.554-1.58,6.92-2.785,9.949-4.585
		c1.03-0.612,1.707-2.722,1.707-4.148c0-17.968-0.269-35.937-0.186-53.905c0.021-4.532-1.754-6.058-5.857-5.811
		c-9.389,0.565-18.684,1.096-28.03,1.886c-4.24,0.358-9.141-0.596-11.345-4.322c-0.345-0.583-0.616-1.276-0.449-1.937
		c0.236-0.936,1.222-1.423,2.109-1.753c11.657-4.327,26.623-3.566,38.877-4.336c3.806-0.239,5.175-1.343,5.76-5.389
		c1.084-7.503,2.673-15.007,4.913-22.23c1.546-4.982,5.077-8.66,11.057-8.251c6.307,0.431,10.553,3.958,11.735,9.972
		c1.496,7.614,1.898,15.454,2.829,23.706c2.989,0,6.702,0,10.888,0c0.657-5.185,0.948-10.405,2.072-15.43
		c0.92-4.116,2.444-8.21,4.377-11.947c5.558-10.742,18.714-6.667,21.445,1.959c1.606,5.076,2.136,10.542,2.82,15.877
		c0.376,2.938,0.067,5.967,0.067,9.795c5.616,0,11.186-0.008,16.756,0.002c4.938,0.009,9.876,0.077,14.813,0.044
		c4.234-0.028,5.915,2.722,6.146,6.388c0.263,4.173-2.916,4.008-5.741,3.997c-9.13-0.035-18.262,0.047-27.388-0.152
		c-3.707-0.081-4.918,1.439-5.509,5.137c-2.682,16.777-6.514,33.402-8.371,50.262c-1.3,11.801-0.296,23.901,0.105,35.852
		c0.148,4.407-0.064,23.802,7.639,22.41c10.216-1.846,15.511-25.736,16.632-34.072c1.58-11.751,4.841-22.65,12.835-31.586
		c8.13-9.088,20.994-10.005,27.465-1.667c5.174,6.667,5.686,14.636,3.407,22.435c-3.652,12.499-10.629,22.074-24.587,24.847
		c0.494,2.241,0.864,4.403,1.449,6.503c4.652,16.703,17.076,20.641,29.841,9.122c9.921-8.952,16.836-19.541,19.088-33.607
		c1.346-8.41,5.058-16.868,9.433-24.229c8.48-14.268,17.902-17.357,34.589-12.763c0.94-7.411,1.743-14.728,2.816-22.003
		c2.918-19.783,5.678-39.599,9.077-59.297c1.303-7.555,6.734-10.376,12.882-7.474c1.724,0.814,3.662,3.859,3.514,5.714
		c-2.145,26.827-5.513,53.58-6.815,80.441c-0.996,20.558-0.918,41.228,1.357,61.699c1.131,10.174,2.793,20.289,5.111,30.252
		c1.052,4.524,9.399,23.158,6.29,26.565c-1.163,1.275-2.947,1.683-4.618,2.027c-22.628,4.66-23.668-23.297-25.514-40.625
		c-0.944-8.865-1.408-17.783-2.133-27.291c-4.901,13.652-9.74,27.042-26.124,28.465c-8.752,0.76-16.418-1.909-20.034-12.157
		c-8.606,11.353-18.237,20.422-32.295,21.442c-14.392,1.044-25.458-5.347-33.315-18.53c-5.7,8.204-10.373,17.445-21.389,18.503
		c-11.154,1.072-17.522-5.645-22.269-15.395c-2.142,2.71-3.86,5.085-5.778,7.276c-12.065,13.781-30.945,9.88-36.112-7.984
		c-2.619-9.054-3.257-18.709-4.791-28.092c-0.234-1.433-0.47-2.866-0.793-4.838c-4.144,1.205-7.934,2.308-10.535,3.065
		c-2.944,10.048-5.031,19.55-8.523,28.475c-4.19,10.709-13.643,16.226-24.221,15.703c-8.992-0.444-17.368-7.231-20.619-16.754
		C192.346,161.227,191.758,159.116,190.768,155.892z M286.81,58.005c-1.048,7.97-1.689,15.609-3.105,23.094
		c-3.989,21.097-9.024,42.058-5.8,63.838c0.878,5.936-0.293,31.064,11.415,21.151c6.687-5.669,10.667-17.278,10.586-26.05
		c-0.182-19.814-1.235-39.618-1.782-59.43c-0.21-7.582-0.034-15.175-0.034-22.604C293.973,58.005,290.561,58.005,286.81,58.005z
		 M429.404,162.582c1.405,0.533,3.14,0.698,4.32,0.295c2.542-0.868,5.478-5.471,6.241-6.85c8.65-15.629,12.228-30.307,14.997-47.49
		c0.679-4.214-1.43-6.65-4.133-7.647c-2.306-0.851-5.87-0.478-7.905,0.881c-2.369,1.582-3.719,4.233-4.681,6.861
		c-4.861,13.27-8.605,27.58-11.264,41.133c-0.082,0.419-0.128,0.845-0.189,1.267c-0.301,2.081-0.472,4.266-0.429,6.373
		c0.032,1.583,0.275,3.246,1.453,4.271C428.229,162.04,428.784,162.347,429.404,162.582z M209.442,120.679
		c1.351,10.903-0.34,37.868,8.681,45.345c3.573-2.062,13.636-24.511,10.411-27.522C221.6,132.029,216.136,126.928,209.442,120.679z
		 M358.485,136.856c7.634,1.609,17.207-19.112,18.365-25.574c0.564-3.149-2.937-4.566-5.577-3.489
		c-1.549,0.632-3.018,2.182-3.974,3.477C361.905,118.572,353.33,135.461,358.485,136.856z M275.768,81.167
		c0.107,0.006,0.214-0.013,0.319-0.066c0.279-0.14,0.415-0.461,0.518-0.761c0.818-2.374,0.823-4.942,1.082-7.419
		c0.228-2.182,0.413-4.369,0.555-6.559c0.117-1.805,0.228-3.891-0.115-5.678c-0.233-1.213-1.158-2.716-2.297-1.464
		c-1.42,1.56-1.39,5.328-1.452,7.304c-0.118,3.752-0.58,7.606-0.216,11.343c0.085,0.869,0.215,1.755,0.625,2.521
		C274.992,80.771,275.376,81.144,275.768,81.167z M277.619,27.138c-1.143-1.827-2.034,1.646-2.165,2.238
		c-0.762,3.435-2.25,13.667,1.123,16.044c2.463,1.736,1.765-11.28,1.735-11.947C278.277,32.699,278.454,28.479,277.619,27.138z
		 M319.914,26.845c-0.155-0.183-0.71-0.234-0.919-0.254c-1.105-0.107-1.365,3.052-1.42,3.818c-0.179,2.517-0.171,5.043-0.172,7.565
		c-0.001,1.97-0.469,4.513,0.349,6.354c0.261,0.589,0.869,1.197,1.438,0.918c0.364-0.178,0.495-0.632,0.58-1.035
		c0.727-3.454,1.247-7.647,1.042-11.175C320.753,32.005,320.944,28.058,319.914,26.845z M229.052,120.854
		c-0.93-5.968-0.187-12.596-5.512-18.057C221.85,110.459,223.645,116.162,229.052,120.854z M317.476,82.512
		c0.241-0.295,0.361-0.755,0.447-1.1c0.281-1.121,0.284-2.279,0.466-3.414c0.318-1.973,0.6-3.952,0.86-5.934
		c0.514-3.92,0.939-7.852,1.371-11.783c0.096-0.876,0.156-1.865-0.408-2.53c-1.415-1.667-2.353,1.576-2.531,2.615
		c-0.416,2.427-0.713,4.875-0.889,7.332c-0.197,2.754-0.464,5.502-0.646,8.257c-0.087,1.31-0.164,2.623-0.175,3.937
		c-0.005,0.608-0.07,1.219-0.003,1.826c0.049,0.443,0.278,0.962,0.746,1.064C317.056,82.857,317.299,82.729,317.476,82.512z"/>
	<path style="fill:#66BC7F;stroke:#0A0808;stroke-width:2;stroke-miterlimit:10;" d="M26.979,125.062
		c-0.809,0.249-0.262,24.194-0.191,26.574c0.269,8.992,2.582,17.338,4.615,26.103c0.671,2.891,1.344,5.894,0.759,8.805
		c-2.238,11.13-16.856,7.153-20.152-0.958c-5.493-13.514-5.532-27.832-4.858-42.017c0.943-19.858,2.697-39.805,2.99-59.674
		c0.198-13.452-0.465-27.266,3.026-40.379c1.984-7.451,9.928-28.841,20.456-15.977c0.726,0.888,0.87,2.746,0.57,3.974
		c-5.517,22.554-5.464,45.584-5.719,68.589c-0.005,0.485,0.309,0.974,0.884,2.667c4.91-3.946,10.174-6.92,13.788-11.316
		c11.147-13.557,21.819-27.535,32.346-41.608c3.978-5.319,7.038-11.355,10.554-17.04c0.775-1.254,1.564-2.561,2.598-3.574
		c3.101-3.039,6.775-2.797,10.152-0.883c3.529,1.999,3.016,5.567,1.355,8.382c-6.305,10.682-12.276,21.66-19.528,31.648
		c-12.108,16.675-25.737,32.067-41.474,45.655c17.208,19.451,26.448,44.256,40.877,65.689c3.61,5.363,7.623,10.542,12.086,15.163
		c2.573,2.664,6.211,4.87,9.741,5.79c4.529,1.18,3.996,3.569,2.822,6.573c-3.081,7.883-12.853,10.982-20.305,5.382
		c-5.931-4.456-11.856-9.832-15.684-16.136c-10.107-16.645-19.081-34.012-28.488-51.102c-3.825-6.948-7.606-13.922-11.407-20.885
		C28.186,124.692,27.583,124.876,26.979,125.062z"/>
</g>
<rect x="109.991" y="-225.318" style="fill:#F8C9D7;" width="99" height="99"/>
<rect x="293.755" y="-111.918" style="fill:#B3D8C9;" width="99" height="99"/>
<rect x="139.282" y="-104.718" style="fill:#66BC7F;" width="99" height="99"/>
</svg>
