<?xml version="1.0" encoding="utf-8"?>
<!-- Generator: Adobe Illustrator 16.0.0, SVG Export Plug-In . SVG Version: 6.00 Build 0)  -->
<!DOCTYPE svg PUBLIC "-//W3C//DTD SVG 1.1//EN" "http://www.w3.org/Graphics/SVG/1.1/DTD/svg11.dtd">
<svg version="1.1" id="Layer_1" xmlns="http://www.w3.org/2000/svg" xmlns:xlink="http://www.w3.org/1999/xlink" x="0px" y="0px"
	 width="300px" height="136.5px" viewBox="0 0 300 136.5" enable-background="new 0 0 300 136.5" xml:space="preserve">
<rect x="-13.646" y="-80.542" fill="#090606" width="59.4" height="59.4"/>
<g>
	<path fill="#66BC7F" stroke="#0B0A0A" stroke-width="2" stroke-miterlimit="10" d="M115.115,95.747
		c-1.819,2.021-3.136,3.825-4.774,5.24c-5.504,4.757-12.237,3.827-15.465-2.682c-2.249-4.531-3.305-9.686-4.883-14.564
		c-0.654-2.02-1.048-4.174-2.007-6.025c-0.506-0.977-2-2.02-2.995-1.968c-1.165,0.063-2.9,1.034-3.281,2.048
		c-0.967,2.575-1.765,5.385-1.82,8.115c-0.119,5.82,0.213,11.654,0.486,17.477c0.134,2.867,0.093,5.457-3.249,6.442
		c-3.464,1.021-7.11,0.015-8.098-3.165c-1.375-4.424-2.5-9.096-2.685-13.705c-0.358-8.971-0.002-17.971,0.085-26.957
		c0.04-4.14,0.95-5.33,4.343-5.884c3.244-0.528,6.074,1.319,6.991,4.697c0.319,1.178,0.42,2.435,0.48,3.664
		c0.054,1.096-0.085,2.202-0.167,3.866c0.823-0.666,1.294-1.006,1.72-1.396c4.754-4.375,10.082-4.035,13.254,1.648
		c2.462,4.414,3.825,9.486,5.541,14.316c0.934,2.633,1.494,5.4,2.389,8.049c0.847,2.506,2.668,3.246,4.507,1.291
		c4.57-4.861,9.029-9.875,8.891-17.33c-0.021-1.104,0.152-2.24,0.397-3.323c1.518-6.701,4.067-8.56,10.934-7.841
		c0.18-0.803,0.386-1.633,0.552-2.474c0.715-3.624,2.191-6.683,6.07-7.546c4.01-0.893,7.904,0.171,9.792,3.786
		c2.218,4.249,3.328,9.106,4.881,13.715c0.21,0.623,0.204,1.322,0.382,2.589c2.132-0.947,4.151-1.671,5.97-2.751
		c0.617-0.366,1.023-1.633,1.023-2.487c0-10.781-0.16-21.563-0.111-32.345c0.014-2.719-1.053-3.635-3.514-3.485
		c-5.633,0.338-11.21,0.658-16.818,1.131c-2.544,0.215-5.485-0.357-6.807-2.594c-0.207-0.35-0.37-0.766-0.27-1.162
		c0.142-0.563,0.733-0.854,1.266-1.053c6.994-2.596,15.974-2.14,23.326-2.602c2.283-0.145,3.105-0.807,3.455-3.232
		c0.65-4.503,1.605-9.005,2.949-13.339c0.928-2.989,3.045-5.196,6.633-4.95c3.785,0.258,6.332,2.375,7.041,5.982
		c0.898,4.568,1.141,9.271,1.697,14.225c1.795,0,4.021,0,6.533,0c0.395-3.111,0.568-6.244,1.244-9.259
		c0.551-2.469,1.465-4.926,2.625-7.168c3.336-6.444,11.229-4,12.867,1.175c0.965,3.045,1.281,6.325,1.691,9.526
		c0.227,1.763,0.041,3.58,0.041,5.877c3.369,0,6.711-0.005,10.053,0.001c2.963,0.005,5.926,0.046,8.889,0.025
		c2.541-0.017,3.549,1.634,3.688,3.834c0.158,2.504-1.75,2.404-3.443,2.397c-5.479-0.021-10.957,0.028-16.434-0.091
		c-2.225-0.049-2.951,0.863-3.305,3.082c-1.609,10.066-3.91,20.041-5.023,30.156c-0.779,7.08-0.178,14.342,0.064,21.513
		c0.088,2.644-0.039,14.281,4.584,13.444c6.129-1.106,9.307-15.44,9.979-20.442c0.947-7.051,2.904-13.59,7.701-18.951
		c4.877-5.452,12.596-6.003,16.479-1c3.105,4,3.412,8.782,2.045,13.461c-2.191,7.499-6.377,13.244-14.752,14.908
		c0.297,1.345,0.518,2.642,0.869,3.901c2.791,10.021,10.246,12.385,17.904,5.474c5.953-5.371,10.102-11.726,11.453-20.164
		c0.807-5.047,3.035-10.121,5.66-14.538c5.088-8.561,10.74-10.415,20.752-7.658c0.563-4.445,1.047-8.836,1.689-13.201
		c1.752-11.871,3.406-23.76,5.445-35.578c0.781-4.533,4.041-6.227,7.73-4.484c1.033,0.488,2.195,2.314,2.107,3.428
		c-1.287,16.096-3.309,32.148-4.09,48.266c-0.598,12.335-0.551,24.736,0.814,37.019c0.678,6.104,1.676,12.175,3.064,18.151
		c0.633,2.715,5.643,13.896,3.775,15.939c-0.699,0.764-1.77,1.01-2.771,1.215c-13.576,2.797-14.201-13.979-15.309-24.375
		c-0.566-5.317-0.846-10.67-1.279-16.375c-2.941,8.191-5.846,16.227-15.676,17.08c-5.25,0.455-9.85-1.146-12.02-7.295
		c-5.164,6.813-10.943,12.254-19.377,12.865c-8.637,0.627-15.275-3.208-19.99-11.117c-3.42,4.922-6.225,10.467-12.832,11.103
		c-6.693,0.643-10.516-3.388-13.361-9.237c-1.285,1.626-2.316,3.051-3.467,4.366c-7.24,8.269-18.568,5.928-21.668-4.791
		c-1.57-5.433-1.953-11.226-2.875-16.854c-0.141-0.859-0.281-1.72-0.475-2.902c-2.486,0.723-4.762,1.385-6.322,1.839
		c-1.768,6.028-3.019,11.729-5.114,17.085c-2.514,6.426-8.186,9.734-14.533,9.422c-5.395-0.268-10.421-4.339-12.371-10.053
		C116.062,98.948,115.709,97.681,115.115,95.747z M172.74,37.015c-0.629,4.781-1.014,9.365-1.863,13.855
		c-2.393,12.658-5.414,25.234-3.479,38.303c0.525,3.563-0.176,18.639,6.848,12.69c4.014-3.401,6.4-10.367,6.354-15.63
		c-0.109-11.889-0.74-23.771-1.068-35.658c-0.127-4.549-0.021-9.105-0.021-13.563C177.037,37.015,174.99,37.015,172.74,37.015z
		 M258.297,99.761c0.844,0.319,1.885,0.418,2.592,0.177c1.525-0.521,3.287-3.282,3.744-4.11c5.189-9.377,7.338-18.184,8.998-28.494
		c0.408-2.527-0.857-3.99-2.479-4.588c-1.385-0.511-3.521-0.287-4.744,0.528c-1.422,0.948-2.23,2.54-2.809,4.116
		c-2.916,7.963-5.162,16.549-6.758,24.681c-0.049,0.251-0.076,0.507-0.113,0.761c-0.182,1.248-0.283,2.559-0.258,3.823
		c0.02,0.95,0.164,1.948,0.871,2.563C257.592,99.436,257.926,99.62,258.297,99.761z M126.319,74.619
		c0.811,6.542-0.204,22.722,5.209,27.206c2.144-1.236,8.181-14.706,6.247-16.513C133.614,81.429,130.336,78.368,126.319,74.619z
		 M215.744,84.325c4.582,0.965,10.324-11.467,11.02-15.345c0.34-1.89-1.762-2.739-3.346-2.093c-0.93,0.379-1.811,1.309-2.385,2.086
		C217.797,73.354,212.652,83.488,215.744,84.325z M166.115,50.911c0.064,0.003,0.129-0.008,0.191-0.04
		c0.168-0.084,0.248-0.276,0.311-0.457c0.49-1.424,0.494-2.965,0.648-4.452c0.137-1.309,0.248-2.621,0.334-3.935
		c0.07-1.083,0.137-2.334-0.07-3.407c-0.139-0.728-0.693-1.63-1.377-0.878c-0.852,0.937-0.834,3.197-0.871,4.382
		c-0.07,2.252-0.348,4.563-0.131,6.807c0.053,0.521,0.129,1.053,0.375,1.513C165.648,50.675,165.881,50.898,166.115,50.911z
		 M167.225,18.494c-0.686-1.096-1.219,0.988-1.299,1.343c-0.457,2.062-1.352,8.2,0.674,9.627c1.479,1.041,1.061-6.769,1.041-7.168
		C167.621,21.831,167.727,19.3,167.225,18.494z M192.602,18.318c-0.092-0.11-0.426-0.14-0.551-0.151
		c-0.662-0.064-0.818,1.83-0.854,2.291c-0.105,1.51-0.102,3.025-0.104,4.538c0,1.183-0.281,2.708,0.211,3.812
		c0.156,0.354,0.52,0.719,0.861,0.552c0.219-0.106,0.297-0.379,0.348-0.621c0.438-2.073,0.75-4.588,0.627-6.705
		C193.105,21.414,193.221,19.046,192.602,18.318z M138.085,74.724c-0.558-3.58-0.112-7.557-3.307-10.834
		C133.764,68.487,134.841,71.909,138.085,74.724z M191.141,51.718c0.145-0.176,0.215-0.453,0.268-0.66
		c0.168-0.672,0.17-1.366,0.279-2.047c0.191-1.185,0.359-2.371,0.516-3.562c0.309-2.353,0.564-4.711,0.822-7.069
		c0.059-0.525,0.094-1.119-0.244-1.519c-0.85-1-1.412,0.944-1.52,1.569c-0.248,1.455-0.428,2.925-0.533,4.398
		c-0.117,1.653-0.277,3.301-0.387,4.955c-0.055,0.786-0.1,1.574-0.105,2.362c-0.002,0.364-0.041,0.731-0.002,1.096
		c0.029,0.267,0.168,0.577,0.447,0.64C190.887,51.925,191.033,51.849,191.141,51.718z"/>
	<path fill="#66BC7F" stroke="#0B0A0A" stroke-width="2" stroke-miterlimit="10" d="M16.842,77.249
		c-0.485,0.148-0.157,14.516-0.115,15.943c0.162,5.396,1.549,10.402,2.769,15.662c0.403,1.734,0.807,3.537,0.456,5.283
		c-1.343,6.678-10.114,4.291-12.091-0.574c-3.296-8.109-3.319-16.699-2.915-25.211C5.512,76.438,6.564,64.47,6.74,52.548
		c0.119-8.07-0.279-16.358,1.816-24.227c1.19-4.471,5.957-17.305,12.273-9.586c0.436,0.533,0.522,1.646,0.342,2.384
		c-3.311,13.533-3.279,27.351-3.432,41.153c-0.003,0.291,0.186,0.584,0.53,1.601c2.946-2.368,6.104-4.151,8.273-6.79
		c6.688-8.134,13.091-16.521,19.408-24.965c2.387-3.191,4.223-6.813,6.333-10.224c0.465-0.752,0.938-1.537,1.559-2.146
		c1.86-1.822,4.065-1.678,6.091-0.529c2.117,1.199,1.81,3.34,0.813,5.029c-3.783,6.408-7.366,12.995-11.717,18.988
		c-7.265,10.005-15.442,19.24-24.884,27.395c10.325,11.67,15.869,26.553,24.526,39.412c2.166,3.219,4.574,6.325,7.251,9.098
		c1.544,1.6,3.727,2.923,5.845,3.475c2.717,0.709,2.397,2.143,1.693,3.944c-1.849,4.729-7.712,6.589-12.183,3.229
		c-3.559-2.674-7.114-5.899-9.41-9.682c-6.064-9.987-11.449-20.408-17.093-30.662c-2.295-4.168-4.564-8.353-6.844-12.531
		C17.566,77.026,17.204,77.138,16.842,77.249z"/>
</g>
<rect x="69.995" y="-80.542" fill="#F8C9D7" width="59.4" height="59.4"/>
<rect x="238.253" y="-80.542" fill="#B3D8C9" width="59.399" height="59.4"/>
<rect x="154.555" y="-80.542" fill="#66BC7F" width="59.398" height="59.4"/>
<rect x="315.801" y="-80.542" fill="#A8DBF6" width="59.4" height="59.4"/>
</svg>
