<?xml version="1.0" encoding="iso-8859-1"?>
<!-- Generator: Adobe Illustrator 16.0.0, SVG Export Plug-In . SVG Version: 6.00 Build 0)  -->
<!DOCTYPE svg PUBLIC "-//W3C//DTD SVG 1.1//EN" "http://www.w3.org/Graphics/SVG/1.1/DTD/svg11.dtd">
<svg version="1.1" id="Layer_1" xmlns="http://www.w3.org/2000/svg" xmlns:xlink="http://www.w3.org/1999/xlink" x="0px" y="0px"
	 width="300px" height="136.5px" viewBox="0 81.5 300 136.5" style="enable-background:new 0 81.5 300 136.5;" xml:space="preserve"
	>
<rect x="-13.646" y="-80.542" style="fill:#090606;" width="59.4" height="59.4"/>
<g>
	<path style="fill:#66BC7F;stroke:#0B0A0A;stroke-width:2;stroke-miterlimit:10;" d="M114.461,177.885
		c-1.819,2.021-3.136,3.825-4.774,5.24c-5.504,4.757-12.237,3.827-15.465-2.681c-2.249-4.532-3.305-9.686-4.883-14.565
		c-0.654-2.02-1.048-4.174-2.007-6.025c-0.506-0.977-2-2.02-2.995-1.968c-1.165,0.062-2.9,1.034-3.281,2.048
		c-0.967,2.575-1.765,5.384-1.82,8.115c-0.119,5.82,0.213,11.654,0.486,17.477c0.134,2.867,0.093,5.457-3.249,6.442
		c-3.464,1.021-7.11,0.015-8.098-3.165c-1.375-4.424-2.5-9.096-2.685-13.705c-0.358-8.971-0.002-17.971,0.085-26.958
		c0.04-4.139,0.95-5.33,4.343-5.883c3.244-0.528,6.074,1.319,6.991,4.697c0.319,1.178,0.42,2.435,0.48,3.664
		c0.054,1.096-0.085,2.202-0.167,3.867c0.823-0.666,1.294-1.006,1.72-1.397c4.754-4.375,10.082-4.036,13.254,1.649
		c2.462,4.414,3.825,9.486,5.541,14.316c0.934,2.632,1.494,5.4,2.389,8.049c0.847,2.506,2.668,3.246,4.507,1.291
		c4.57-4.862,9.029-9.876,8.891-17.33c-0.021-1.105,0.152-2.241,0.397-3.324c1.518-6.701,4.067-8.559,10.934-7.841
		c0.18-0.802,0.386-1.633,0.552-2.473c0.715-3.624,2.191-6.683,6.07-7.546c4.01-0.892,7.904,0.171,9.792,3.786
		c2.218,4.249,3.328,9.107,4.881,13.715c0.21,0.623,0.204,1.322,0.382,2.589c2.132-0.948,4.151-1.671,5.97-2.751
		c0.617-0.367,1.023-1.633,1.023-2.488c0-10.781-0.161-21.563-0.111-32.344c0.013-2.719-1.053-3.635-3.514-3.486
		c-5.633,0.339-11.21,0.658-16.818,1.131c-2.544,0.215-5.485-0.357-6.807-2.593c-0.207-0.35-0.37-0.766-0.27-1.163
		c0.142-0.562,0.733-0.854,1.266-1.052c6.994-2.596,15.974-2.14,23.327-2.602c2.283-0.144,3.104-0.806,3.455-3.233
		c0.65-4.502,1.604-9.004,2.948-13.338c0.928-2.989,3.046-5.196,6.634-4.951c3.785,0.259,6.332,2.375,7.041,5.983
		c0.898,4.568,1.139,9.272,1.697,14.224c1.794,0,4.021,0,6.533,0c0.395-3.111,0.568-6.243,1.243-9.258
		c0.552-2.469,1.466-4.926,2.626-7.168c3.335-6.445,11.229-4,12.867,1.175c0.964,3.045,1.281,6.325,1.692,9.526
		c0.226,1.763,0.04,3.58,0.04,5.877c3.369,0,6.711-0.005,10.054,0.001c2.962,0.005,5.925,0.046,8.888,0.026
		c2.541-0.017,3.549,1.633,3.688,3.833c0.158,2.504-1.75,2.405-3.445,2.398c-5.477-0.021-10.957,0.028-16.432-0.091
		c-2.225-0.049-2.951,0.863-3.306,3.082c-1.609,10.066-3.909,20.041-5.022,30.157c-0.78,7.08-0.178,14.341,0.063,21.512
		c0.089,2.644-0.038,14.281,4.584,13.445c6.129-1.107,9.307-15.441,9.979-20.443c0.948-7.051,2.904-13.59,7.701-18.951
		c4.878-5.453,12.597-6.003,16.479-1c3.105,4,3.412,8.782,2.045,13.461c-2.191,7.499-6.377,13.244-14.752,14.908
		c0.296,1.344,0.518,2.642,0.869,3.901c2.791,10.022,10.246,12.385,17.904,5.474c5.953-5.371,10.102-11.725,11.453-20.164
		c0.808-5.047,3.035-10.121,5.66-14.538c5.088-8.561,10.74-10.415,20.753-7.658c0.563-4.446,1.046-8.836,1.689-13.202
		c1.751-11.87,3.407-23.759,5.446-35.578c0.781-4.533,4.041-6.226,7.729-4.484c1.034,0.488,2.196,2.315,2.108,3.428
		c-1.287,16.096-3.309,32.148-4.09,48.265c-0.598,12.335-0.551,24.737,0.814,37.019c0.679,6.105,1.676,12.174,3.066,18.151
		c0.632,2.715,5.641,13.896,3.774,15.939c-0.698,0.765-1.769,1.01-2.771,1.216c-13.577,2.797-14.201-13.979-15.309-24.375
		c-0.566-5.318-0.845-10.67-1.279-16.375c-2.941,8.191-5.845,16.226-15.675,17.08c-5.251,0.455-9.851-1.146-12.021-7.295
		c-5.164,6.813-10.942,12.254-19.377,12.865c-8.635,0.627-15.275-3.208-19.989-11.117c-3.42,4.922-6.224,10.467-12.833,11.102
		c-6.692,0.643-10.514-3.387-13.361-9.237c-1.285,1.626-2.316,3.051-3.467,4.366c-7.239,8.268-18.567,5.928-21.668-4.791
		c-1.57-5.433-1.953-11.226-2.874-16.855c-0.141-0.859-0.282-1.719-0.476-2.902c-2.486,0.723-4.761,1.385-6.321,1.839
		c-1.767,6.028-3.019,11.729-5.114,17.085c-2.514,6.426-8.186,9.735-14.533,9.422c-5.395-0.267-10.421-4.339-12.371-10.053
		C115.408,181.086,115.055,179.818,114.461,177.885z M172.086,119.152c-0.629,4.782-1.014,9.365-1.863,13.856
		c-2.393,12.658-5.414,25.234-3.479,38.303c0.526,3.562-0.176,18.638,6.849,12.69c4.012-3.401,6.4-10.367,6.352-15.63
		c-0.109-11.889-0.74-23.771-1.068-35.658c-0.127-4.549-0.021-9.105-0.021-13.563C176.384,119.152,174.336,119.152,172.086,119.152z
		 M257.643,181.898c0.843,0.32,1.884,0.419,2.592,0.177c1.525-0.521,3.287-3.282,3.744-4.11c5.19-9.377,7.338-18.184,8.998-28.494
		c0.408-2.528-0.857-3.99-2.479-4.588c-1.385-0.511-3.522-0.287-4.744,0.528c-1.421,0.949-2.23,2.54-2.809,4.117
		c-2.916,7.962-5.162,16.548-6.758,24.68c-0.049,0.251-0.076,0.507-0.113,0.761c-0.181,1.248-0.283,2.559-0.258,3.823
		c0.02,0.95,0.165,1.948,0.872,2.563C256.938,181.573,257.271,181.758,257.643,181.898z M125.665,156.757
		c0.811,6.542-0.204,22.721,5.209,27.206c2.144-1.236,8.181-14.706,6.247-16.513C132.96,163.566,129.682,160.506,125.665,156.757z
		 M215.091,166.463c4.581,0.965,10.324-11.467,11.019-15.345c0.339-1.889-1.762-2.739-3.346-2.093
		c-0.93,0.379-1.811,1.309-2.385,2.086C217.143,155.492,211.998,165.626,215.091,166.463z M165.461,133.049
		c0.064,0.003,0.129-0.008,0.191-0.04c0.168-0.084,0.249-0.276,0.311-0.457c0.49-1.424,0.494-2.965,0.649-4.452
		c0.137-1.309,0.247-2.621,0.333-3.935c0.07-1.083,0.137-2.334-0.069-3.407c-0.14-0.728-0.694-1.63-1.378-0.878
		c-0.852,0.936-0.834,3.197-0.871,4.382c-0.07,2.251-0.348,4.563-0.13,6.806c0.052,0.521,0.129,1.053,0.375,1.513
		C164.995,132.812,165.226,133.036,165.461,133.049z M166.571,100.632c-0.686-1.096-1.22,0.988-1.299,1.343
		c-0.457,2.061-1.351,8.2,0.674,9.626c1.478,1.042,1.06-6.768,1.041-7.168C166.967,103.969,167.072,101.437,166.571,100.632z
		 M191.948,100.456c-0.093-0.11-0.426-0.14-0.552-0.152c-0.662-0.064-0.818,1.831-0.852,2.291c-0.107,1.51-0.103,3.026-0.104,4.539
		c0,1.182-0.281,2.708,0.21,3.812c0.156,0.354,0.521,0.718,0.862,0.551c0.219-0.106,0.297-0.379,0.348-0.621
		c0.438-2.073,0.749-4.588,0.626-6.705C192.451,103.552,192.566,101.184,191.948,100.456z M137.431,156.861
		c-0.558-3.58-0.112-7.557-3.307-10.834C133.11,150.625,134.187,154.047,137.431,156.861z M190.486,133.856
		c0.145-0.177,0.216-0.453,0.268-0.66c0.168-0.672,0.17-1.367,0.279-2.048c0.191-1.184,0.36-2.371,0.516-3.561
		c0.309-2.352,0.564-4.711,0.823-7.07c0.058-0.525,0.094-1.119-0.245-1.518c-0.849-1-1.412,0.945-1.519,1.569
		c-0.249,1.456-0.428,2.925-0.533,4.399c-0.118,1.653-0.278,3.301-0.388,4.955c-0.053,0.786-0.098,1.574-0.105,2.362
		c-0.002,0.365-0.041,0.731-0.001,1.096c0.029,0.266,0.167,0.577,0.447,0.639C190.233,134.063,190.379,133.986,190.486,133.856z"/>
	<path style="fill:#66BC7F;stroke:#0B0A0A;stroke-width:2;stroke-miterlimit:10;" d="M16.188,159.387
		c-0.485,0.148-0.157,14.516-0.115,15.943c0.162,5.396,1.549,10.403,2.769,15.662c0.403,1.734,0.807,3.537,0.456,5.283
		c-1.343,6.678-10.114,4.292-12.091-0.574c-3.296-8.109-3.319-16.699-2.915-25.211c0.566-11.914,1.618-23.883,1.794-35.804
		c0.119-8.071-0.279-16.359,1.816-24.227c1.19-4.471,5.957-17.305,12.273-9.586c0.436,0.533,0.522,1.647,0.342,2.384
		c-3.311,13.533-3.279,27.351-3.432,41.153c-0.003,0.291,0.186,0.584,0.53,1.601c2.946-2.368,6.104-4.152,8.273-6.79
		c6.688-8.134,13.091-16.521,19.408-24.965c2.387-3.191,4.223-6.813,6.333-10.224c0.465-0.752,0.938-1.537,1.559-2.145
		c1.86-1.823,4.065-1.678,6.091-0.53c2.117,1.2,1.81,3.34,0.813,5.029c-3.783,6.409-7.366,12.996-11.717,18.989
		c-7.265,10.005-15.442,19.24-24.884,27.394c10.325,11.67,15.869,26.553,24.526,39.413c2.166,3.218,4.574,6.325,7.251,9.098
		c1.544,1.599,3.727,2.922,5.845,3.474c2.717,0.709,2.397,2.142,1.693,3.944c-1.849,4.729-7.712,6.589-12.183,3.229
		c-3.559-2.674-7.114-5.9-9.41-9.682c-6.064-9.987-11.449-20.408-17.093-30.662c-2.295-4.168-4.564-8.353-6.844-12.531
		C16.912,159.164,16.55,159.275,16.188,159.387z"/>
</g>
<rect x="69.995" y="-80.542" style="fill:#F8C9D7;" width="59.4" height="59.4"/>
<rect x="238.253" y="-80.542" style="fill:#B3D8C9;" width="59.399" height="59.4"/>
<rect x="154.554" y="-80.542" style="fill:#66BC7F;" width="59.399" height="59.4"/>
<rect x="315.801" y="-80.542" style="fill:#A8DBF6;" width="59.4" height="59.4"/>
</svg>
