<?xml version="1.0" encoding="utf-8"?>
<!-- Generator: Adobe Illustrator 16.0.0, SVG Export Plug-In . SVG Version: 6.00 Build 0)  -->
<!DOCTYPE svg PUBLIC "-//W3C//DTD SVG 1.1//EN" "http://www.w3.org/Graphics/SVG/1.1/DTD/svg11.dtd">
<svg version="1.1" id="Layer_1" xmlns="http://www.w3.org/2000/svg" xmlns:xlink="http://www.w3.org/1999/xlink" x="0px" y="0px"
	 width="150px" height="150px" viewBox="821 821 150 150" enable-background="new 821 821 150 150" xml:space="preserve">
<path fill="#66BB7F" d="M957.094,910.475c2.883,1.629,4.746,4.057,5.592,7.285c0.846,3.227,0.453,6.279-1.176,9.162l-6.014,10.34
	c-1.629,2.883-4.057,4.746-7.285,5.592c-3.227,0.848-6.281,0.455-9.164-1.174l-25.002-14.381v28.854c0,3.26-1.189,6.08-3.57,8.461
	c-2.381,2.379-5.201,3.57-8.459,3.57h-12.031c-3.258,0-6.078-1.191-8.459-3.57c-2.38-2.381-3.571-5.201-3.571-8.461v-28.854
	l-25.001,14.381c-2.882,1.629-5.937,2.021-9.164,1.174c-3.227-0.846-5.655-2.709-7.284-5.592l-6.016-10.34
	c-1.628-2.883-2.021-5.936-1.174-9.162c0.846-3.229,2.71-5.656,5.592-7.285L859.908,896l-25.001-14.475
	c-2.882-1.629-4.747-4.057-5.592-7.284c-0.846-3.228-0.454-6.282,1.174-9.164l6.016-10.339c1.629-2.882,4.058-4.746,7.284-5.592
	c3.227-0.846,6.282-0.455,9.164,1.174l25.001,14.381v-28.855c0-3.258,1.191-6.078,3.571-8.459c2.381-2.381,5.201-3.571,8.459-3.571
	h12.031c3.258,0,6.078,1.19,8.459,3.571c2.381,2.382,3.57,5.201,3.57,8.459v28.855l25.002-14.381
	c2.883-1.629,5.938-2.021,9.164-1.174c3.229,0.846,5.656,2.71,7.285,5.592l6.014,10.339c1.629,2.882,2.021,5.937,1.176,9.164
	c-0.846,3.227-2.709,5.654-5.592,7.284L932.092,896L957.094,910.475z"/>
<rect x="996.5" y="809" fill="#E79682" width="99" height="99"/>
<rect x="999.5" y="861" fill="#66BB7F" width="99" height="99"/>
</svg>
